<svg width="115" height="28" viewBox="0 0 115 28" fill="none" xmlns="http://www.w3.org/2000/svg">
<path fill-rule="evenodd" clip-rule="evenodd" d="M47.6769 16.4255C48.9503 15.2675 49.5842 13.7738 49.5842 11.9388C49.5842 10.1206 48.9503 8.63243 47.6769 7.46878C46.4035 6.31072 44.7679 5.72889 42.7701 5.72889H38.3613V18.1375H42.7701C44.7792 18.143 46.4148 17.5724 47.6769 16.4255ZM42.5947 7.52472C44.1623 7.52472 45.3848 7.92193 46.2507 8.71075C47.1336 9.51636 47.5694 10.5905 47.5694 11.9388C47.5694 13.287 47.1279 14.3612 46.2507 15.1668C45.3848 15.9612 44.1623 16.3528 42.5947 16.3528H40.3308V7.52472H42.5947ZM62.0408 17.3822V15.4129C61.09 16.1682 59.9015 16.5486 58.4696 16.5486C57.1227 16.5486 56.0134 16.1178 55.1362 15.2563C54.2533 14.3836 53.8175 13.2758 53.8175 11.9388C53.8175 10.6017 54.2533 9.50517 55.1192 8.64362C56.0021 7.77088 57.0944 7.33451 58.4017 7.33451C59.5959 7.32332 60.7731 7.66458 61.7748 8.30795V6.33869C60.7844 5.78484 59.6581 5.50511 58.3848 5.50511C56.4832 5.50511 54.9098 6.11491 53.676 7.32892C52.4253 8.53173 51.8027 10.0702 51.8027 11.9388C51.8027 13.8073 52.4253 15.3458 53.676 16.5654C54.9494 17.7682 56.5171 18.3724 58.3848 18.3724C59.777 18.3724 60.9938 18.0423 62.0408 17.3822ZM66.41 8.71075L69.8906 13.3933H71.0338L74.5144 8.71075V18.143H76.4783V5.73449H74.5144L70.5018 11.3178L66.4496 5.73449H64.4518V18.143H66.4156V8.71075H66.41ZM80.1683 17.0969C81.1191 17.9472 82.268 18.3724 83.6093 18.3724C84.9506 18.3724 86.0316 18.0871 86.8409 17.5221V15.9108C85.992 16.4199 85.0185 16.6941 84.0224 16.6885C83.1169 16.6885 82.3699 16.4815 81.7813 16.0675C81.1927 15.6535 80.8361 15.0829 80.7173 14.35H87.4238V13.8521C87.4238 12.101 86.8069 10.7919 85.5675 9.91916C84.9393 9.44922 84.1696 9.20866 83.2641 9.20866C81.9454 9.20866 80.8588 9.64503 80.0155 10.5178C79.1835 11.3793 78.7647 12.4702 78.7647 13.7794C78.7761 15.1444 79.2401 16.2465 80.1683 17.0969ZM81.4983 11.4185C81.9454 11.0213 82.5057 10.8255 83.1848 10.8255C83.8979 10.8255 84.4582 11.0381 84.8601 11.4632C85.2392 11.8493 85.4656 12.3584 85.4826 12.901H80.7343C80.7908 12.3248 81.0625 11.7933 81.4983 11.4185ZM96.3489 16.957V18.143H98.2731V5.73449H96.3489V10.6297C95.6132 9.68419 94.5718 9.21426 93.2248 9.20866C91.9854 9.20866 90.9724 9.65062 90.1744 10.5401C89.3764 11.4129 88.9802 12.4982 88.9802 13.7849C88.9802 15.0829 89.3764 16.1738 90.1744 17.0465C90.9724 17.9305 91.9911 18.378 93.2248 18.378C94.5718 18.3724 95.6132 17.9025 96.3489 16.957ZM91.7307 15.8549C91.1931 15.2899 90.9271 14.5961 90.9271 13.7794C90.9271 12.9737 91.1931 12.2968 91.7307 11.743C92.2684 11.1779 92.9362 10.8926 93.7455 10.8926C94.2832 10.8926 94.8152 11.0437 95.2679 11.329C95.7207 11.5975 96.0886 11.9835 96.3489 12.4367V15.1332C96.0999 15.5976 95.7264 15.9836 95.2793 16.2577C94.8208 16.543 94.2888 16.6941 93.7455 16.6941C92.9362 16.6885 92.2627 16.4144 91.7307 15.8549ZM103.112 9.43804H101.182V18.143H103.112V9.43804ZM102.999 7.53591C103.231 7.30654 103.355 6.99884 103.35 6.67436C103.355 6.34988 103.231 6.03659 102.999 5.80722C102.778 5.57784 102.473 5.44917 102.15 5.45476C101.822 5.44917 101.51 5.57784 101.284 5.80722C101.052 6.03659 100.927 6.34988 100.939 6.67436C100.927 6.99325 101.058 7.30654 101.284 7.53591C101.51 7.76529 101.827 7.88836 102.15 7.88277C102.467 7.88836 102.772 7.75969 102.999 7.53591ZM113.718 16.4255C113.582 16.2745 113.514 16.0619 113.514 15.7878V12.543C113.514 11.4912 113.146 10.6744 112.416 10.087C111.686 9.49957 110.701 9.20866 109.462 9.20866C108.2 9.20866 107.136 9.45482 106.27 9.95273V11.6367C107.096 11.122 108.058 10.8534 109.038 10.859C110.752 10.859 111.607 11.4912 111.607 12.7556V13.2367C110.798 12.7891 109.864 12.5653 108.806 12.5653C107.804 12.5653 106.972 12.8171 106.31 13.3262C105.631 13.8241 105.291 14.529 105.291 15.4521C105.291 16.3752 105.602 17.0913 106.219 17.5948C106.847 18.1151 107.634 18.3724 108.573 18.3724C109.932 18.3724 111.007 17.9249 111.805 17.0241C112.031 17.8521 112.643 18.2661 113.644 18.2661C114.131 18.2661 114.505 18.171 114.771 17.9808V16.5262C114.612 16.6102 114.431 16.6549 114.256 16.6493C114.046 16.6605 113.848 16.5766 113.718 16.4255ZM110.498 16.4311C110.062 16.6213 109.587 16.722 109.105 16.722C108.523 16.722 108.064 16.6046 107.725 16.3696C107.385 16.1346 107.215 15.7878 107.215 15.3402C107.204 14.9374 107.413 14.557 107.759 14.35C108.121 14.115 108.624 13.9975 109.264 13.9975C110.085 13.9975 110.888 14.2101 111.601 14.6185V15.6815C111.296 16.006 110.917 16.2633 110.498 16.4311Z" fill="#38434E"/>
<path fill-rule="evenodd" clip-rule="evenodd" d="M38.6542 21.6395H38.5014V25.5164H38.6542V21.6395ZM38.4335 20.0674C38.3373 20.1625 38.3373 20.252 38.4335 20.3471C38.5297 20.4423 38.6259 20.4423 38.7221 20.3471C38.8183 20.252 38.8183 20.1625 38.7221 20.0674C38.6259 19.9723 38.5297 19.9723 38.4335 20.0674ZM42.3499 21.9695C42.6612 21.7849 43.0177 21.6842 43.3856 21.6786C44.342 21.6786 44.8231 22.1821 44.8231 23.1891V25.5164H44.9759V23.1612C44.9759 22.6409 44.8401 22.2381 44.5741 21.9584C44.3081 21.6786 43.9176 21.5388 43.4026 21.5388C43.046 21.5388 42.6895 21.6227 42.3782 21.7849C42.0782 21.9304 41.8122 22.143 41.6028 22.4059V21.6395H41.45V25.5164H41.6028V22.6465C41.7896 22.3668 42.0499 22.1374 42.3499 21.9695ZM49.7978 25.4325V25.2759C49.5828 25.4101 49.3338 25.4829 49.0734 25.4829C48.5301 25.4829 48.2584 25.1976 48.2584 24.6269V21.7849H49.8658V21.6451H48.2584V20.3248H48.1056V21.6451H47.019V21.7849H48.1056V24.6661C48.1056 24.985 48.1905 25.2255 48.366 25.3822C48.5358 25.5444 48.7735 25.6227 49.0734 25.6227C49.3281 25.6283 49.5828 25.5612 49.7978 25.4325ZM55.2423 25.2759V25.1192C54.8914 25.3598 54.4613 25.4829 53.9406 25.4829C53.3633 25.4829 52.8823 25.3039 52.4974 24.9458C52.1182 24.5822 51.9315 24.129 51.9315 23.5863V23.5304H55.5649V23.4745C55.5649 23.3234 55.5479 23.1724 55.5196 23.0269C55.48 22.8535 55.4234 22.68 55.3442 22.5178C55.265 22.3444 55.1574 22.1821 55.0216 22.0367C54.8744 21.8856 54.6933 21.7681 54.4896 21.6898C54.2519 21.5947 53.9972 21.5444 53.7369 21.55C53.1596 21.55 52.6899 21.7402 52.3276 22.1262C51.9598 22.5178 51.773 23.0045 51.773 23.5863C51.773 24.1738 51.9824 24.6605 52.3956 25.0465C52.8087 25.4325 53.3237 25.6227 53.9406 25.6227C54.4839 25.6227 54.9197 25.5053 55.2423 25.2759ZM52.4578 22.2101C52.7804 21.8577 53.2105 21.6842 53.7425 21.6842C54.0142 21.6786 54.2859 21.7346 54.5292 21.8521C54.7443 21.9528 54.9254 22.1094 55.0612 22.2996C55.2876 22.6185 55.4121 22.9933 55.4178 23.3794H51.9428C51.9654 22.9486 52.1465 22.529 52.4578 22.2101ZM58.0834 22.7807C58.2362 22.4786 58.4626 22.2101 58.7456 22.0143C59.0229 21.8017 59.3625 21.6842 59.7133 21.6842V21.5444C59.3455 21.55 58.9946 21.6619 58.6946 21.8688C58.4456 22.0423 58.2362 22.2661 58.0834 22.529V21.6451H57.9306V25.522H58.0834V22.7807ZM62.6223 21.9695C62.9336 21.7849 63.2902 21.6842 63.658 21.6786C64.6145 21.6786 65.0956 22.1821 65.0956 23.1891V25.5164H65.2484V23.1612C65.2484 22.6409 65.1125 22.2381 64.8465 21.9584C64.5806 21.6786 64.19 21.5388 63.675 21.5388C63.3185 21.5388 62.9619 21.6227 62.645 21.7849C62.345 21.9304 62.079 22.143 61.8696 22.4059V21.6395H61.7168V25.5164H61.8696V22.6465C62.0621 22.3668 62.3167 22.1374 62.6223 21.9695ZM71.0098 25.2759V25.1192C70.6589 25.3598 70.2288 25.4829 69.7081 25.4829C69.1308 25.4829 68.6498 25.3039 68.2649 24.9458C67.8857 24.5822 67.699 24.129 67.699 23.5863V23.5304H71.3324V23.4745C71.3324 23.3234 71.3154 23.1724 71.2871 23.0269C71.2475 22.8535 71.1909 22.68 71.1117 22.5178C71.0324 22.3444 70.9249 22.1821 70.7891 22.0367C70.6419 21.8856 70.4608 21.7681 70.2571 21.6898C70.0194 21.5947 69.7647 21.5444 69.5043 21.55C68.9271 21.55 68.4573 21.7402 68.0951 22.1262C67.7273 22.5178 67.5405 23.0045 67.5405 23.5863C67.5405 24.1738 67.7499 24.6605 68.163 25.0465C68.5762 25.4325 69.0912 25.6227 69.7081 25.6227C70.2571 25.6227 70.6872 25.5053 71.0098 25.2759ZM68.2253 22.2101C68.5479 21.8577 68.978 21.6842 69.51 21.6842C69.7817 21.6786 70.0533 21.7346 70.2967 21.8521C70.5117 21.9528 70.6929 22.1094 70.8287 22.2996C71.0551 22.6185 71.1796 22.9933 71.1852 23.3794H67.7103C67.7329 22.9486 67.9197 22.529 68.2253 22.2101ZM75.8374 25.4325V25.2759C75.6223 25.4101 75.3733 25.4829 75.113 25.4829C74.5696 25.4829 74.298 25.1976 74.298 24.6269V21.7849H75.9053V21.6451H74.298V20.3248H74.1452V21.6451H73.0585V21.7849H74.1452V24.6661C74.1452 24.985 74.2301 25.2255 74.4055 25.3822C74.581 25.5388 74.813 25.6227 75.113 25.6227C75.3676 25.6283 75.6166 25.5612 75.8374 25.4325ZM84.638 24.8059C84.638 25.0409 84.6945 25.2255 84.8134 25.3542C84.9266 25.4829 85.0907 25.55 85.2662 25.55C85.3454 25.55 85.4303 25.5388 85.5039 25.5108V25.371C85.4303 25.399 85.3511 25.4157 85.2718 25.4102C85.1303 25.4157 84.9945 25.3542 84.9153 25.2423C84.8247 25.108 84.7794 24.9458 84.7851 24.7836V22.9318C84.7851 22.473 84.6323 22.1318 84.3267 21.8968C84.0211 21.6619 83.6136 21.5444 83.0929 21.5444C82.5326 21.5444 82.0629 21.6786 81.6893 21.9416V22.1038C82.0968 21.8241 82.5835 21.673 83.0816 21.6842C83.5796 21.6842 83.9645 21.7905 84.2305 22.0031C84.4965 22.2157 84.6323 22.5234 84.6323 22.9262V23.6031C84.1229 23.2954 83.5343 23.1276 82.9344 23.122C82.4364 23.122 82.0289 23.2395 81.7176 23.4745C81.4177 23.6815 81.2422 24.0171 81.2536 24.3752C81.2536 24.7668 81.4064 25.0745 81.712 25.2983C82.0346 25.5164 82.4194 25.6283 82.8099 25.6227C83.5174 25.6339 84.1908 25.3318 84.638 24.8059ZM81.8365 25.2087C81.5535 25.0185 81.412 24.7388 81.412 24.3752C81.412 24.0451 81.5535 23.7766 81.8421 23.5696C82.1308 23.3626 82.51 23.2619 82.9854 23.2619C83.54 23.2619 84.0946 23.4297 84.6436 23.771V24.5822C84.4455 24.8395 84.1908 25.0577 83.9022 25.2199C83.5853 25.3934 83.2287 25.4885 82.8665 25.4829C82.5043 25.4885 82.1478 25.3934 81.8365 25.2087ZM90.7446 26.736C91.1125 26.4283 91.2992 25.992 91.2992 25.4213V21.6395H91.1464V22.4171C90.7333 21.8353 90.1503 21.5444 89.4033 21.5444C88.7864 21.5444 88.2827 21.7458 87.8922 22.1542C87.1225 22.9598 87.1225 24.2129 87.8922 25.0185C88.2827 25.4213 88.7864 25.6227 89.4033 25.6227C90.1503 25.6227 90.7333 25.3318 91.1464 24.75V25.4213C91.1464 25.9416 90.9766 26.35 90.6314 26.6353C90.2918 26.9207 89.8221 27.0661 89.2335 27.0661C88.6958 27.0773 88.1695 26.9374 87.7111 26.6689V26.8311C88.1808 27.0829 88.7128 27.2116 89.2505 27.2004C89.8787 27.1948 90.3767 27.0437 90.7446 26.736ZM88.0224 24.9346C87.6601 24.571 87.4621 24.0843 87.4677 23.5808C87.4564 23.0773 87.6545 22.5905 88.0224 22.2325C88.3846 21.8688 88.8883 21.6674 89.4089 21.6786C89.7768 21.6786 90.139 21.7737 90.4503 21.9639C90.7559 22.1374 90.9993 22.3947 91.1521 22.7024V24.4535C90.9993 24.7612 90.7559 25.0185 90.4503 25.192C90.139 25.3822 89.7768 25.4773 89.4089 25.4773C88.8883 25.4941 88.3846 25.2927 88.0224 24.9346ZM97.1512 25.2759V25.1192C96.8003 25.3598 96.3645 25.4829 95.8495 25.4829C95.2722 25.4829 94.7912 25.3039 94.4063 24.9458C94.0271 24.5822 93.8347 24.129 93.8347 23.5863V23.5304H97.4681V23.4745C97.4681 23.3234 97.4511 23.1724 97.4228 23.0269C97.3832 22.8535 97.3266 22.68 97.2474 22.5178C97.1682 22.3444 97.055 22.1821 96.9248 22.0367C96.772 21.8856 96.5909 21.7681 96.3928 21.6898C96.1551 21.5947 95.9004 21.5444 95.6401 21.55C95.0628 21.55 94.5931 21.7402 94.2309 22.1262C93.863 22.5178 93.6762 23.0045 93.6762 23.5863C93.6762 24.1738 93.8856 24.6605 94.2988 25.0465C94.7119 25.4325 95.2269 25.6227 95.8438 25.6227C96.3928 25.6227 96.8286 25.5053 97.1512 25.2759ZM94.3667 22.2101C94.6893 21.8577 95.1194 21.6842 95.6514 21.6842C95.9231 21.6786 96.1947 21.7346 96.4381 21.8521C96.6531 21.9528 96.8343 22.1094 96.9701 22.2996C97.1965 22.6185 97.321 22.9933 97.3266 23.3794H93.8517C93.8743 22.9486 94.0554 22.529 94.3667 22.2101ZM100.739 21.9695C101.051 21.7849 101.407 21.6842 101.775 21.6786C102.731 21.6786 103.213 22.1821 103.213 23.1891V25.5164H103.365V23.1612C103.365 22.6409 103.23 22.2381 102.964 21.9584C102.698 21.6786 102.307 21.5388 101.792 21.5388C101.435 21.5388 101.079 21.6227 100.762 21.7849C100.462 21.9304 100.196 22.143 99.9866 22.4059V21.6395H99.8338V25.5164H99.9866V22.6465C100.185 22.3668 100.439 22.1374 100.739 21.9695ZM106.246 25.0185C106.625 25.4213 107.129 25.6227 107.752 25.6227C108.25 25.6227 108.68 25.4997 109.048 25.2591V25.0913C108.668 25.3542 108.216 25.4885 107.752 25.4773C107.236 25.4885 106.738 25.2927 106.376 24.9346C106.014 24.571 105.816 24.0843 105.822 23.5808C105.81 23.0773 106.008 22.5905 106.376 22.2325C106.733 21.8688 107.236 21.6674 107.752 21.6786C108.182 21.673 108.6 21.7905 108.968 22.0143V21.8465C108.6 21.6339 108.182 21.522 107.752 21.5332C107.135 21.5332 106.631 21.7346 106.246 22.143C105.476 22.9598 105.476 24.2073 106.246 25.0185ZM112.075 26.9095C112.268 26.7193 112.472 26.406 112.681 25.9752L114.764 21.6395H114.594L112.885 25.1808L111.142 21.6395H110.972L112.8 25.3598C112.539 25.9584 112.307 26.3948 112.104 26.6633C111.906 26.9207 111.668 27.0493 111.385 27.0493C111.204 27.0493 111.028 27.0046 110.876 26.9151V27.0661C111.034 27.15 111.215 27.1948 111.396 27.1892C111.651 27.2004 111.9 27.0941 112.075 26.9095Z" fill="#38434E"/>
<path fill-rule="evenodd" clip-rule="evenodd" d="M0 0.39209L16.7409 4.532L32.9951 0.39209V24.4707C32.9951 25.3491 35.1118 25.8581 35.1118 25.8581H31.2633V2.8089L16.7183 6.44531L2.00348 2.8089V25.8581H0V0.39209Z" fill="#38434E"/>
<path fill-rule="evenodd" clip-rule="evenodd" d="M28.2886 8.10107L17.7676 13.9809L28.3452 19.7879L20.3087 13.9865L28.2886 8.10107Z" fill="#38434E"/>
<path fill-rule="evenodd" clip-rule="evenodd" d="M5.30469 8.13421C5.30469 8.13421 11.898 7.75938 15.8201 13.986C12.5263 19.5414 5.97251 19.8155 5.96685 19.8155L5.32733 19.8323L5.30469 8.13421Z" fill="#38434E"/>
<path fill-rule="evenodd" clip-rule="evenodd" d="M5.74023 8.67716C5.74023 8.67716 11.7563 8.34149 15.3048 13.9639C12.3279 18.9822 6.39674 19.2843 6.39674 19.2843L5.75721 19.3011L5.74023 8.67716Z" fill="#EAC63C"/>
<path d="M9.63905 17.2929C10.458 17.2929 11.1218 15.8477 11.1218 14.0649C11.1218 12.2821 10.458 10.8369 9.63905 10.8369C8.82012 10.8369 8.15625 12.2821 8.15625 14.0649C8.15625 15.8477 8.82012 17.2929 9.63905 17.2929Z" fill="#2D2D2D"/>
<path fill-rule="evenodd" clip-rule="evenodd" d="M9.53711 10.4229L9.93328 13.3376L10.5275 10.6298" fill="#EAC63C"/>
</svg>
