<svg width="72" height="78" viewBox="0 0 72 78" fill="none" xmlns="http://www.w3.org/2000/svg">
<path d="M25.8766 77.3767C25.8766 77.3767 33.2297 60.1284 34.3422 52.5274C35.4546 44.9265 35.129 42.87 35.129 42.87C35.4542 42.5027 35.7036 42.0608 35.8598 41.575C36.016 41.0893 36.0753 40.5714 36.0335 40.0575C35.7531 38.5655 34.9843 38.4647 34.9843 38.4647C34.9843 38.4647 39.8412 36.0453 40.7366 26.3073C41.632 16.5692 40.1667 1.73027 37.5258 0.822999C34.8848 -0.0842735 30.5978 14.2708 30.6159 18.6257C30.6159 18.6257 26.6544 9.69409 24.0677 10.8231C21.481 11.9522 24.3029 24.5835 25.1259 27.2246C25.949 29.8658 30.0913 38.4345 31.457 39.0998C31.1799 39.3725 30.9895 39.738 30.9145 40.1415C30.8395 40.545 30.8839 40.9648 31.041 41.3378C31.2617 41.831 31.5743 42.266 31.958 42.6137C32.3417 42.9614 32.7876 43.2138 33.2659 43.3539C33.4257 48.4815 32.5928 53.5872 30.8239 58.3239C27.8573 65.9853 25.4696 75.1992 25.8766 77.3767Z" fill="#D1A641"/>
<path d="M48.3687 69.1453C50.7356 68.3846 56.9303 63.2049 59.491 59.5455C62.192 55.6811 67.7798 45.948 66.0487 44.1335C64.5514 42.5615 59.3814 49.7153 59.3814 49.7153C59.3814 49.7153 65.9094 30.8471 63.247 29.3677C60.0744 27.572 50.9539 42.3223 47.6382 53.4056C46.4075 57.5335 45.3323 65.7483 45.6681 69.066C45.6681 69.066 44.1192 72.7753 46.6138 73.426C48.3572 73.844 48.3687 69.1453 48.3687 69.1453Z" fill="#D1A641"/>
<path d="M4.93263 35.3989C6.03251 42.4844 5.8053 55.0596 8.36385 61.7119C10.9224 68.3641 14.9716 70.956 14.9716 70.956C14.9716 70.956 18.9609 62.0821 16.5547 54.2759C14.1484 46.4697 9.71553 39.1286 4.93263 35.3989Z" fill="#D1A641"/>
</svg>
