<svg width="72" height="68" viewBox="0 0 72 68" fill="none" xmlns="http://www.w3.org/2000/svg">
<path d="M25.8766 68C25.8766 68 33.2297 52.6872 34.3422 45.9391C35.4546 39.1911 35.129 37.3654 35.129 37.3654C35.4542 37.0393 35.7036 36.647 35.8598 36.2157C36.016 35.7845 36.0753 35.3247 36.0335 34.8685C35.7531 33.5439 34.9843 33.4544 34.9843 33.4544C34.9843 33.4544 39.8412 31.3065 40.7366 22.6612C41.632 14.0158 40.1667 0.841989 37.5258 0.0365227C34.8848 -0.768944 30.5978 11.9753 30.6159 15.8415C30.6159 15.8415 26.6544 7.91218 24.0677 8.91454C21.481 9.9169 24.3029 21.1308 25.1259 23.4756C25.949 25.8204 30.0913 33.4276 31.457 34.0182C31.1799 34.2603 30.9895 34.5849 30.9145 34.9431C30.8395 35.3013 30.8839 35.6739 31.041 36.0051C31.2617 36.443 31.5743 36.8292 31.958 37.1379C32.3417 37.4466 32.7876 37.6706 33.2659 37.795C33.4257 42.3472 32.5928 46.88 30.8239 51.0852C27.8573 57.8869 25.4696 66.0669 25.8766 68Z" fill="#701621"/>
<path d="M48.3667 60.6923C50.7336 60.017 56.9283 55.4185 59.4891 52.1697C62.1901 48.739 67.7778 40.098 66.0467 38.4871C64.5495 37.0915 59.3795 43.4426 59.3795 43.4426C59.3795 43.4426 65.9074 26.6916 63.2451 25.3782C60.0725 23.784 50.9519 36.8791 47.6362 46.7188C46.4055 50.3834 45.3303 57.6765 45.6661 60.6219C45.6661 60.6219 44.1173 63.915 46.6118 64.4926C48.3552 64.8638 48.3667 60.6923 48.3667 60.6923Z" fill="#701621"/>
<path d="M4.93262 30.7327C6.03251 37.023 5.80529 48.1872 8.36384 54.093C10.9224 59.9988 14.9716 62.2998 14.9716 62.2998C14.9716 62.2998 18.9609 54.4217 16.5547 47.4914C14.1484 40.5612 9.71552 34.0438 4.93262 30.7327Z" fill="#701621"/>
</svg>
