<svg width="50" height="50" viewBox="0 0 50 50" fill="none" xmlns="http://www.w3.org/2000/svg">
<path d="M5 0C2.23858 0 0 2.23858 0 5V45C0 47.7614 2.23858 50 5 50H45C47.7614 50 50 47.7614 50 45V5C50 2.23858 47.7614 0 45 0H5Z" fill="url(#paint0_linear)"/>
<path d="M24.9955 6.53955C17.4309 6.53955 10.2476 5.86663 7.50382 12.9083C6.37049 15.8166 6.53507 19.5937 6.53507 25.002C6.53507 29.7479 6.38299 34.2083 7.50382 37.0937C10.2413 44.1395 17.483 43.4645 24.9913 43.4645C32.2351 43.4645 39.7038 44.2187 42.4809 37.0937C43.6163 34.1562 43.4497 30.4354 43.4497 25.002C43.4497 17.7895 43.8476 13.1333 40.3497 9.63746C36.808 6.0958 32.0184 6.53955 24.9872 6.53955H24.9955ZM23.3413 9.86663C39.1205 9.84163 41.1288 8.08746 40.0205 32.4562C39.6267 41.075 33.0642 40.1291 24.9976 40.1291C10.2892 40.1291 9.86632 39.7083 9.86632 24.9937C9.86632 10.1083 11.033 9.87496 23.3413 9.86246V9.86663ZM34.8497 12.9312C33.6267 12.9312 32.6351 13.9229 32.6351 15.1458C32.6351 16.3687 33.6267 17.3604 34.8497 17.3604C36.0726 17.3604 37.0642 16.3687 37.0642 15.1458C37.0642 13.9229 36.0726 12.9312 34.8497 12.9312ZM24.9955 15.5208C19.7601 15.5208 15.5163 19.7666 15.5163 25.002C15.5163 30.2375 19.7601 34.4812 24.9955 34.4812C30.2309 34.4812 34.4726 30.2375 34.4726 25.002C34.4726 19.7666 30.2309 15.5208 24.9955 15.5208ZM24.9955 18.8479C33.1309 18.8479 33.1413 31.1562 24.9955 31.1562C16.8622 31.1562 16.8497 18.8479 24.9955 18.8479Z" fill="white"/>
<defs>
<linearGradient id="paint0_linear" x1="3.22391" y1="47.3051" x2="50.122" y2="7.10308" gradientUnits="userSpaceOnUse">
<stop stop-color="#FFDD55"/>
<stop offset="0.5" stop-color="#FF543E"/>
<stop offset="1" stop-color="#C837AB"/>
</linearGradient>
</defs>
</svg>
