<svg width="50" height="50" viewBox="0 0 50 50" fill="none" xmlns="http://www.w3.org/2000/svg">
<rect width="50" height="50" rx="5" fill="#FF6B00"/>
<rect width="50" height="50" rx="5" fill="#FF6B00"/>
<g clip-path="url(#clip0)">
<path d="M25.7137 27.0079C30.4103 27.0079 34.2177 23.2005 34.2177 18.5039C34.2177 13.8073 30.4103 10 25.7137 10C21.0171 10 17.2098 13.8073 17.2098 18.504C17.2155 23.1982 21.0195 27.0021 25.7137 27.0079ZM25.7137 13.9249C28.2426 13.9249 30.2928 15.975 30.2928 18.504C30.2928 21.033 28.2427 23.083 25.7137 23.083C23.1847 23.083 21.1346 21.033 21.1346 18.504C21.1346 15.975 23.1848 13.9249 25.7137 13.9249Z" fill="white"/>
<path d="M34.0436 31.0375C34.9678 30.4288 35.5246 29.3967 35.5259 28.2901C35.5388 27.3716 35.0205 26.5283 34.1954 26.1248C33.3476 25.7013 32.3328 25.7967 31.5788 26.3708C28.0842 28.9185 23.3445 28.9185 19.8499 26.3708C19.0947 25.7997 18.0817 25.7045 17.2333 26.1248C16.4085 26.5282 15.89 27.3707 15.9014 28.2887C15.9034 29.3952 16.4601 30.4269 17.3838 31.0361C18.5688 31.8243 19.8594 32.4409 21.2171 32.8678C21.4474 32.9393 21.685 33.0056 21.9301 33.0667L17.9765 36.9327C16.9393 37.939 16.9142 39.5955 17.9205 40.6327C18.9269 41.6699 20.5833 41.695 21.6206 40.6886C21.6421 40.6677 21.6634 40.6464 21.6842 40.6247L25.7138 36.4538L29.7512 40.6325C30.7567 41.6705 32.4132 41.6969 33.4512 40.6914C34.4891 39.686 34.5155 38.0294 33.5101 36.9914C33.489 36.9697 33.4676 36.9484 33.4459 36.9274L29.4987 33.0653C29.7438 33.0025 29.9823 32.9358 30.2143 32.8652C31.5705 32.4399 32.8599 31.8246 34.0436 31.0375Z" fill="white"/>
</g>
<defs>
<clipPath id="clip0">
<rect width="31.4286" height="31.4286" fill="white" transform="translate(10 10)"/>
</clipPath>
</defs>
</svg>
