<svg width="40" height="40" viewBox="0 0 40 40" fill="none" xmlns="http://www.w3.org/2000/svg">
<g clip-path="url(#clip0)">
<path d="M39.5444 37.3452L29.7825 27.5835C32.209 24.6655 33.6708 20.9186 33.6708 16.8359C33.6708 7.55256 26.1185 0 16.8355 0C7.55236 0 0 7.55256 0 16.8359C0 26.1187 7.55236 33.6706 16.8355 33.6706C20.918 33.6706 24.6651 32.209 27.583 29.7825L37.3452 39.5444C37.6488 39.8482 38.0469 40 38.4448 40C38.8427 40 39.2409 39.8482 39.5446 39.5444C40.152 38.9371 40.152 37.9526 39.5444 37.3452ZM3.11035 16.8359C3.11035 9.26761 9.2674 3.11036 16.8355 3.11036C24.4034 3.11036 30.5603 9.26761 30.5603 16.8359C30.5603 24.4036 24.4034 30.5603 16.8355 30.5603C9.2674 30.5603 3.11035 24.4036 3.11035 16.8359Z" fill="#38434E"/>
</g>
<defs>
<clipPath id="clip0">
<rect width="40" height="40" fill="white"/>
</clipPath>
</defs>
</svg>
