<svg width="50" height="50" viewBox="0 0 50 50" fill="none" xmlns="http://www.w3.org/2000/svg">
<path d="M5 0C2.23858 0 0 2.23858 0 5V45C0 47.7614 2.23858 50 5 50H45C47.7614 50 50 47.7614 50 45V5C50 2.23858 47.7614 0 45 0H5Z" fill="#0057A8"/>
<g clip-path="url(#clip0)">
<path d="M37.3579 32.5491C37.3311 32.484 37.3011 32.4206 37.2681 32.3591C36.5399 31.1019 35.6464 29.9693 34.6164 28.9978L34.5893 28.9669L34.5757 28.9521L34.5621 28.9372H34.5485C33.9565 28.3184 33.5818 27.9026 33.4244 27.6897C33.2889 27.5254 33.1987 27.3224 33.1643 27.1043C33.1299 26.8861 33.1527 26.6617 33.23 26.4572C33.5827 25.7465 34.003 25.0786 34.4837 24.4647C34.8633 23.9306 35.1642 23.4995 35.3864 23.1714C36.9884 20.8391 37.6825 19.3486 37.4687 18.7001L37.3861 18.5479C37.2695 18.418 37.1192 18.3305 36.9557 18.2972C36.6648 18.218 36.3622 18.2052 36.0666 18.2595L32.0682 18.2892C31.9766 18.2643 31.8806 18.2671 31.7903 18.2972L31.6096 18.343L31.5396 18.3808L31.4842 18.4265C31.4254 18.4696 31.3738 18.5234 31.3317 18.5856C31.2736 18.6665 31.2268 18.7564 31.1927 18.8523C30.7778 20.0327 30.2811 21.1767 29.7071 22.2742C29.3644 22.9029 29.051 23.448 28.7668 23.9096C28.552 24.2702 28.3105 24.6109 28.0448 24.9282C27.8805 25.1163 27.7042 25.2915 27.5172 25.4523C27.3598 25.5843 27.2397 25.64 27.1568 25.6194L26.9207 25.5588C26.7889 25.4656 26.6811 25.3372 26.6072 25.1857C26.5207 25.0007 26.4665 24.7996 26.4474 24.5929C26.4195 24.354 26.4032 24.1488 26.3983 23.9771C26.3934 23.8055 26.3958 23.5621 26.4056 23.247C26.4154 22.9326 26.4199 22.7198 26.4192 22.6084C26.4192 22.2231 26.4261 21.8034 26.4401 21.3495C26.454 20.8955 26.4655 20.5381 26.4746 20.2771C26.4843 20.0131 26.4888 19.7343 26.4881 19.4405C26.4923 19.2104 26.4759 18.9804 26.439 18.7539C26.4068 18.5865 26.3581 18.4234 26.2938 18.2675C26.2345 18.1174 26.1355 17.9903 26.0096 17.9024C25.8654 17.8078 25.7085 17.7387 25.5447 17.6975C24.9277 17.5618 24.2997 17.4954 23.6704 17.4995C22.5532 17.3965 21.4283 17.5203 20.3522 17.8646C20.1544 17.9816 19.9774 18.1367 19.8298 18.3224C19.6634 18.5452 19.64 18.6669 19.7598 18.6875C19.9865 18.7046 20.2077 18.7712 20.4104 18.8834C20.6132 18.9957 20.7934 19.1512 20.9404 19.341L21.024 19.5241C21.1154 19.7473 21.1806 19.9822 21.2183 20.2233C21.2869 20.5892 21.3288 20.9604 21.3437 21.3335C21.3902 21.9661 21.3902 22.6018 21.3437 23.2344C21.297 23.7616 21.2532 24.1721 21.2121 24.4658C21.1831 24.7132 21.12 24.9544 21.025 25.1811C20.9758 25.2962 20.92 25.4079 20.8579 25.5153C20.8399 25.5454 20.8164 25.5711 20.7889 25.5908C20.6693 25.6414 20.5421 25.6674 20.4139 25.6675C20.2337 25.6532 20.0618 25.5785 19.9218 25.4535C19.7094 25.2837 19.5162 25.0871 19.3461 24.8675C19.096 24.5411 18.8706 24.1927 18.6722 23.8261C18.4222 23.3797 18.1631 22.8525 17.8949 22.2444L17.6724 21.8027C17.5331 21.5189 17.3433 21.1057 17.103 20.5632C16.8627 20.0208 16.653 19.4962 16.474 18.9896C16.4116 18.7936 16.2951 18.6236 16.1408 18.5032L16.0708 18.4574C16.0021 18.4037 15.9273 18.3602 15.8482 18.3281C15.7454 18.2822 15.6381 18.2492 15.5285 18.2297L11.7245 18.2595C11.5813 18.24 11.436 18.2559 11.2991 18.306C11.1622 18.3561 11.0374 18.4391 10.9336 18.549L10.8783 18.6406C10.8456 18.7166 10.8312 18.8005 10.8365 18.8843C10.8422 19.0256 10.8705 19.1646 10.92 19.2952C11.4773 20.725 12.0811 22.104 12.7317 23.4324C13.3822 24.7607 13.9492 25.8289 14.4326 26.6368C14.9138 27.4479 15.4045 28.2135 15.9046 28.9338C16.4047 29.654 16.7356 30.1152 16.8972 30.3174C17.0595 30.5204 17.1869 30.673 17.2795 30.7752L17.6264 31.1403C17.9318 31.4588 18.2591 31.7511 18.6054 32.0146C19.0663 32.3755 19.5437 32.7105 20.0356 33.0183C20.6109 33.3692 21.2246 33.6384 21.8619 33.8194C22.5206 34.0231 23.2051 34.1082 23.8888 34.0712H25.4799C25.753 34.0625 26.0135 33.9435 26.2113 33.737L26.2666 33.6604C26.3143 33.5728 26.3495 33.4779 26.3711 33.3788C26.4048 33.2427 26.4213 33.1021 26.4202 32.9611C26.4076 32.5656 26.4377 32.17 26.5101 31.7823C26.556 31.5083 26.6354 31.2423 26.7462 30.9915C26.8257 30.8271 26.9263 30.676 27.045 30.5429C27.1147 30.4584 27.1941 30.3842 27.2811 30.322C27.3169 30.3018 27.3539 30.2842 27.3919 30.2693C27.5303 30.2367 27.6739 30.2411 27.8105 30.2822C27.9471 30.3232 28.0726 30.3997 28.1765 30.5051C28.492 30.7586 28.7767 31.0551 29.0238 31.3875C29.2878 31.7377 29.6047 32.1306 29.9745 32.5662C30.2676 32.9259 30.5932 33.2522 30.9462 33.5402L31.2241 33.7222C31.4521 33.8638 31.6943 33.976 31.946 34.0563C32.195 34.1534 32.4626 34.1794 32.7233 34.1319L36.2755 34.0712C36.5591 34.0881 36.8416 34.0225 37.0946 33.8812C37.2553 33.7964 37.3796 33.6467 37.4415 33.4635C37.4789 33.2938 37.4814 33.1171 37.4488 32.9462C37.4316 32.8106 37.4011 32.6775 37.3579 32.5491Z" fill="white"/>
</g>
<defs>
<clipPath id="clip0">
<rect width="26.6667" height="16.6667" fill="white" transform="translate(10.8333 17.5)"/>
</clipPath>
</defs>
</svg>
