<svg width="110" height="110" viewBox="0 0 110 110" fill="none" xmlns="http://www.w3.org/2000/svg">
<path d="M55 110C85.3757 110 110 85.3757 110 55C110 24.6243 85.3757 0 55 0C24.6243 0 0 24.6243 0 55C0 85.3757 24.6243 110 55 110Z" fill="#C61E24"/>
<path d="M45.244 9.7854C45.2739 11.4466 44.7624 14.3036 45.1818 15.9257C45.6011 17.5477 46.5504 18.3012 46.5504 18.3012C46.5504 18.3012 47.8913 16.4372 47.5572 14.5594C47.2232 12.6816 46.3361 10.8268 45.244 9.7854Z" fill="#701621"/>
<path d="M31.0864 15.4119C31.7315 16.9418 32.3213 19.785 33.3144 21.1328C34.3074 22.483 35.4687 22.8286 35.4687 22.8286C35.4687 22.8286 36.0193 20.6006 35.0102 18.9808C34.001 17.3588 32.4872 15.9694 31.0864 15.4119Z" fill="#701621"/>
<path d="M79.5814 15.6953C78.4064 16.8704 75.9963 18.4855 75.1185 19.914C74.2429 21.3425 74.3581 22.5476 74.3581 22.5476C74.3581 22.5476 76.6299 22.2181 77.752 20.6744C78.8741 19.1307 79.5929 17.2022 79.5814 15.6953Z" fill="#701621"/>
<path d="M65.3063 9.58252C64.7441 11.1447 63.2488 13.6353 63.0644 15.2989C62.8801 16.9647 63.4976 18.0061 63.4976 18.0061C63.4976 18.0061 65.4123 16.7412 65.7694 14.8657C66.1289 12.9902 65.9584 10.9419 65.3063 9.58252Z" fill="#701621"/>
<path d="M97.007 44.4246C95.3619 44.2011 92.6155 43.261 90.9473 43.4292C89.2792 43.5974 88.3922 44.4199 88.3922 44.4199C88.3922 44.4199 90.0303 46.0282 91.9381 45.9844C93.8458 45.9406 95.8135 45.3485 97.007 44.4246Z" fill="#701621"/>
<path d="M91.4755 29.4412C89.9318 30.054 87.0771 30.5817 85.7062 31.5448C84.3352 32.5079 83.9643 33.6622 83.9643 33.6622C83.9643 33.6622 86.1808 34.2612 87.8213 33.2866C89.4641 32.3143 90.888 30.8305 91.4755 29.4412Z" fill="#701621"/>
<path d="M20.0711 29.2087C21.2853 30.3423 22.9834 32.697 24.4396 33.5242C25.8957 34.3513 27.0985 34.1923 27.0985 34.1923C27.0985 34.1923 26.6929 31.9321 25.1101 30.8653C23.5272 29.7985 21.578 29.1465 20.0711 29.2087Z" fill="#701621"/>
<path d="M14.599 43.1205C16.1082 43.8117 18.4629 45.5098 20.108 45.8347C21.7508 46.1572 22.8406 45.6296 22.8406 45.6296C22.8406 45.6296 21.7416 43.6136 19.9029 43.1021C18.0643 42.5883 16.0091 42.5837 14.599 43.1205Z" fill="#701621"/>
<path d="M66.1301 101.017C65.9412 99.3669 66.1739 96.473 65.5979 94.8994C65.0219 93.3257 64.0081 92.6667 64.0081 92.6667C64.0081 92.6667 62.8538 94.6505 63.3676 96.4892C63.8791 98.3278 64.9412 100.088 66.1301 101.017Z" fill="#701621"/>
<path d="M80.0224 93.0583C79.3773 91.5285 78.7874 88.6852 77.7944 87.3374C76.8014 85.9895 75.6401 85.6416 75.6401 85.6416C75.6401 85.6416 75.0895 87.8696 76.0986 89.4894C77.1078 91.1114 78.6192 92.5008 80.0224 93.0583Z" fill="#701621"/>
<path d="M32.3387 95.4361C33.2534 94.0513 35.2925 91.9846 35.8639 90.4086C36.4353 88.835 36.0805 87.676 36.0805 87.676C36.0805 87.676 33.9216 88.4525 33.1313 90.1921C32.3433 91.9316 32.0254 93.9615 32.3387 95.4361Z" fill="#701621"/>
<path d="M45.3576 101.143C45.7862 99.5398 47.0649 96.9339 47.1087 95.2588C47.1525 93.5838 46.4497 92.5977 46.4497 92.5977C46.4497 92.5977 44.648 94.0193 44.4498 95.9178C44.2517 97.8163 44.5927 99.8416 45.3576 101.143Z" fill="#701621"/>
<path d="M13.0204 65.1725C14.6816 65.1655 17.5317 65.7139 19.1584 65.3153C20.785 64.9167 21.5523 63.979 21.5523 63.979C21.5523 63.979 19.7067 62.6127 17.822 62.9214C15.9373 63.2301 14.0733 64.0919 13.0204 65.1725Z" fill="#701621"/>
<path d="M19.3983 80.4275C20.8821 79.6833 23.6815 78.9092 24.9625 77.8309C26.2436 76.7526 26.5132 75.5706 26.5132 75.5706C26.5132 75.5706 24.2529 75.1651 22.7023 76.2779C21.1516 77.3908 19.8637 78.9921 19.3983 80.4275Z" fill="#701621"/>
<path d="M91.5344 80.4598C90.3201 79.3262 88.6221 76.9715 87.1659 76.1443C85.7097 75.3171 84.507 75.4761 84.507 75.4761C84.507 75.4761 84.9125 77.7364 86.4954 78.8032C88.0783 79.8699 90.0275 80.522 91.5344 80.4598Z" fill="#701621"/>
<path d="M97.0076 66.5481C95.4985 65.8569 93.1437 64.1588 91.4987 63.8339C89.8559 63.5114 88.7661 64.039 88.7661 64.039C88.7661 64.039 89.8651 66.055 91.7037 66.5665C93.5447 67.0803 95.5976 67.0849 97.0076 66.5481Z" fill="#701621"/>
<path d="M39.7692 20.3447C40.2116 21.946 40.4259 24.8399 41.2369 26.3076C42.0479 27.7753 43.1516 28.2684 43.1516 28.2684C43.1516 28.2684 43.988 26.1302 43.1977 24.3929C42.4051 22.6557 41.0871 21.0797 39.7692 20.3447Z" fill="#701621"/>
<path d="M39.6932 27.8606C39.6932 27.8606 41.3015 30.2614 42.2991 31.0978C43.2968 31.9342 45.0156 32.782 45.0156 32.782C45.0156 32.782 44.4764 30.2822 43.276 29.3052C42.0756 28.3283 40.2393 27.9182 39.6932 27.8606Z" fill="#701621"/>
<path d="M45.788 32.1161C45.788 32.1161 44.2351 30.1853 44.3687 28.9342C44.5023 27.6808 45.4862 24.9413 45.3548 23.9482C45.3548 23.9482 47.1566 25.8629 46.7787 28.2706C46.3986 30.6784 45.9193 31.8627 45.788 32.1161Z" fill="#701621"/>
<path d="M88.9894 37.8579C87.4296 38.4293 84.5634 38.8832 83.1671 39.8117C81.7708 40.7403 81.3723 41.8831 81.3723 41.8831C81.3723 41.8831 83.5726 42.5397 85.2385 41.6089C86.9043 40.6758 88.3651 39.2311 88.9894 37.8579Z" fill="#701621"/>
<path d="M81.4939 38.4016C81.4939 38.4016 79.2336 40.2011 78.4825 41.2655C77.7313 42.33 77.0263 44.111 77.0263 44.111C77.0263 44.111 79.4732 43.3691 80.3464 42.0904C81.2197 40.8116 81.48 38.95 81.4939 38.4016Z" fill="#701621"/>
<path d="M77.7543 44.8254C77.7543 44.8254 79.5491 43.1181 80.8094 43.1481C82.0698 43.178 84.8807 43.9338 85.8599 43.7195C85.8599 43.7195 84.1019 45.6733 81.6689 45.4959C79.2381 45.3185 78.0169 44.936 77.7543 44.8254Z" fill="#701621"/>
<path d="M90.9269 70.9556C89.5053 70.0985 87.3556 68.1447 85.7589 67.6378C84.1622 67.1309 83.0194 67.5341 83.0194 67.5341C83.0194 67.5341 83.8834 69.6607 85.6529 70.3773C87.4248 71.0962 89.4661 71.3312 90.9269 70.9556Z" fill="#701621"/>
<path d="M85.8118 65.4513C85.8118 65.4513 82.9939 64.8153 81.6944 64.896C80.395 64.9766 78.5632 65.5411 78.5632 65.5411C78.5632 65.5411 80.6737 66.9858 82.2175 66.8659C83.7589 66.7484 85.3763 65.7853 85.8118 65.4513Z" fill="#701621"/>
<path d="M78.4614 66.5571C78.4614 66.5571 80.9175 66.8889 81.6825 67.8912C82.4474 68.8934 83.6179 71.5569 84.3967 72.1882C84.3967 72.1882 81.7723 72.0385 80.3899 70.0316C79.0075 68.0248 78.5398 66.8313 78.4614 66.5571Z" fill="#701621"/>
<path d="M40.0107 88.9551C40.9599 87.5911 43.0474 85.5751 43.658 84.0152C44.2685 82.4554 43.9414 81.2896 43.9414 81.2896C43.9414 81.2896 41.764 82.013 40.9323 83.7342C40.1005 85.453 39.7342 87.4736 40.0107 88.9551Z" fill="#701621"/>
<path d="M45.8362 84.211C45.8362 84.211 46.6542 81.4415 46.6588 80.1374C46.6634 78.8357 46.2187 76.9717 46.2187 76.9717C46.2187 76.9717 44.6404 78.9831 44.6589 80.5314C44.675 82.0774 45.5321 83.7525 45.8362 84.211Z" fill="#701621"/>
<path d="M45.2125 76.8035C45.2125 76.8035 44.7217 79.2319 43.6734 79.9301C42.625 80.6282 39.8878 81.6235 39.2081 82.3585C39.2081 82.3585 39.5284 79.748 41.6228 78.4993C43.7172 77.2528 44.9337 76.8634 45.2125 76.8035Z" fill="#701621"/>
<path d="M63.9552 24.6833C63.9552 24.6833 62.8677 27.3584 62.7341 28.6555C62.6004 29.9527 62.8608 31.8489 62.8608 31.8489C62.8608 31.8489 64.6303 30.0034 64.7663 28.462C64.8999 26.9206 64.2133 25.1695 63.9552 24.6833Z" fill="#701621"/>
<path d="M63.8441 32.1162C63.8441 32.1162 64.5744 29.7476 65.685 29.1578C66.7978 28.5656 69.618 27.8468 70.3668 27.1809C70.3668 27.1809 69.7908 29.7453 67.5835 30.7821C65.3762 31.819 64.1275 32.0839 63.8441 32.1162Z" fill="#701621"/>
<path d="M70.043 81.6854C70.043 81.6854 68.4163 79.2984 67.4118 78.4689C66.4072 77.6395 64.6838 76.8054 64.6838 76.8054C64.6838 76.8054 65.2414 79.3007 66.4487 80.2684C67.656 81.2315 69.4969 81.6301 70.043 81.6854Z" fill="#701621"/>
<path d="M63.917 77.4761C63.917 77.4761 65.4838 79.3953 65.3616 80.6488C65.2395 81.9022 64.2741 84.6509 64.4124 85.6416C64.4124 85.6416 62.5968 83.7408 62.9562 81.3284C63.3157 78.9184 63.788 77.7295 63.917 77.4761Z" fill="#701621"/>
<path d="M27.5035 71.9393C27.5035 71.9393 29.6993 70.0638 30.4159 68.974C31.1301 67.8841 31.7729 66.0801 31.7729 66.0801C31.7729 66.0801 29.3514 66.9072 28.5242 68.2113C27.6925 69.52 27.4966 71.3909 27.5035 71.9393Z" fill="#701621"/>
<path d="M31.019 65.3912C31.019 65.3912 29.2817 67.1584 28.0237 67.1722C26.7634 67.186 23.9271 66.5271 22.9571 66.7736C22.9571 66.7736 24.6483 64.7599 27.086 64.8567C29.519 64.9511 30.7517 65.2898 31.019 65.3912Z" fill="#701621"/>
<path d="M25.3446 44.1459C25.3446 44.1459 28.1118 44.9754 29.4136 44.9869C30.7153 44.9984 32.5816 44.5607 32.5816 44.5607C32.5816 44.5607 30.5771 42.9732 29.0288 42.9847C27.4828 42.9962 25.8031 43.8441 25.3446 44.1459Z" fill="#701621"/>
<path d="M32.7543 43.556C32.7543 43.556 30.3282 43.0537 29.6346 42.003C28.9411 40.9524 27.9573 38.2106 27.2246 37.5286C27.2246 37.5286 29.8328 37.8603 31.0724 39.9593C32.312 42.0583 32.6944 43.2772 32.7543 43.556Z" fill="#701621"/>
<path d="M55.9878 2.70044C55.5938 4.31328 54.3726 6.94681 54.368 8.62415C54.3611 10.2992 55.0869 11.2692 55.0869 11.2692C55.0869 11.2692 56.8564 9.80844 57.0131 7.90529C57.1697 6.00214 56.7827 3.9838 55.9878 2.70044Z" fill="#701621"/>
<path d="M52.2653 9.22778C52.2653 9.22778 52.5003 12.1078 52.9657 13.3244C53.4311 14.5409 54.5186 16.1192 54.5186 16.1192C54.5186 16.1192 55.2651 13.6723 54.6914 12.2369C54.1177 10.7991 52.7146 9.54574 52.2653 9.22778Z" fill="#701621"/>
<path d="M51.2076 14.0432C51.2076 14.0432 51.6615 18.0615 52.3504 19.2504C53.0393 20.4393 54.4194 21.0867 54.4194 21.0867C54.4194 21.0867 54.2604 17.8288 53.7513 16.7781C53.2421 15.7275 51.961 14.4188 51.2076 14.0432Z" fill="#701621"/>
<path d="M55.0388 21.0753C55.0388 21.0753 54.7554 19.4209 55.3245 18.4279C55.8936 17.4349 58.405 14.6723 58.9811 14.2944C58.9811 14.2944 59.2645 17.1929 58.0917 18.7505C56.9143 20.3034 55.3983 21.0223 55.0388 21.0753Z" fill="#701621"/>
<path d="M55.5178 15.9118C55.5178 15.9118 55.1008 13.4695 55.8265 12.4396C56.5523 11.4097 58.7458 9.49505 59.1144 8.56421C59.1144 8.56421 59.7573 11.1125 58.2527 13.0341C56.7505 14.9556 55.7551 15.7552 55.5178 15.9118Z" fill="#701621"/>
<path d="M50.8277 18.6331C50.8277 18.6331 51.3438 22.831 52.1848 23.9416C53.0258 25.0521 54.0465 25.6466 54.0465 25.6466C54.0465 25.6466 54.1317 22.1882 53.1963 21.1491C52.2608 20.1076 51.5535 19.1123 50.8277 18.6331Z" fill="#701621"/>
<path d="M54.9266 25.893C54.9266 25.893 54.6409 23.4346 55.6847 22.2365C56.7284 21.0361 58.8435 19.6514 58.8435 19.6514C58.8435 19.6514 58.3251 22.2895 57.3228 23.4715C56.3206 24.6512 55.3667 25.7456 54.9266 25.893Z" fill="#701621"/>
<path d="M54.9773 30.6995C54.9773 30.6995 54.5096 28.4553 55.4773 27.1673C56.445 25.8794 58.2952 24.7366 58.2952 24.7366C58.2952 24.7366 58.3827 26.9853 57.5348 28.2549C56.6869 29.5244 54.9773 30.6995 54.9773 30.6995Z" fill="#701621"/>
<path d="M54.2074 30.683C54.1821 30.7683 52.8112 30.289 52.1615 28.7269C51.5117 27.1624 50.7468 23.6211 50.7468 23.6211C50.7468 23.6211 53.5669 25.6855 53.9909 27.2223C54.4125 28.7591 54.3572 30.1992 54.2074 30.683Z" fill="#701621"/>
<path d="M55.4467 107.021C55.6794 105.376 56.6333 102.634 56.4743 100.968C56.3153 99.3002 55.4974 98.4062 55.4974 98.4062C55.4974 98.4062 53.88 100.035 53.9122 101.943C53.9468 103.853 54.5297 105.823 55.4467 107.021Z" fill="#701621"/>
<path d="M58.5089 100.159C58.5089 100.159 57.9905 97.3186 57.4075 96.1527C56.8246 94.9869 55.5873 93.5261 55.5873 93.5261C55.5873 93.5261 55.0851 96.0329 55.7993 97.4061C56.5113 98.7771 58.0319 99.8876 58.5089 100.159Z" fill="#701621"/>
<path d="M59.0847 95.2633C59.0847 95.2633 58.2368 91.3096 57.435 90.1944C56.6332 89.0793 55.1954 88.5701 55.1954 88.5701C55.1954 88.5701 55.6747 91.798 56.2852 92.7934C56.8958 93.7887 58.299 94.9638 59.0847 95.2633Z" fill="#701621"/>
<path d="M54.5795 88.6438C54.5795 88.6438 55.0242 90.2612 54.5565 91.3073C54.0888 92.3533 51.8608 95.3486 51.3262 95.7817C51.3262 95.7817 50.7594 92.9247 51.7732 91.2612C52.787 89.5977 54.227 88.7314 54.5795 88.6438Z" fill="#701621"/>
<path d="M54.6121 93.8279C54.6121 93.8279 55.2688 96.2172 54.6467 97.3139C54.0269 98.4106 52.0316 100.53 51.7551 101.493C51.7551 101.493 50.8634 99.0189 52.1721 96.9614C53.4785 94.9016 54.3909 94.0076 54.6121 93.8279Z" fill="#701621"/>
<path d="M59.0133 90.6597C59.0133 90.6597 58.0871 86.5331 57.1401 85.5101C56.1931 84.4871 55.1194 83.9963 55.1194 83.9963C55.1194 83.9963 55.3752 87.4455 56.4074 88.3902C57.4396 89.3325 58.2438 90.2541 59.0133 90.6597Z" fill="#701621"/>
<path d="M54.2164 83.8376C54.2164 83.8376 54.744 86.2546 53.8224 87.5518C52.9008 88.849 50.9354 90.4365 50.9354 90.4365C50.9354 90.4365 51.1912 87.7614 52.0713 86.485C52.9538 85.2109 53.7948 84.0289 54.2164 83.8376Z" fill="#701621"/>
<path d="M53.693 79.0613C53.693 79.0613 54.3797 81.2478 53.5433 82.6256C52.7069 84.0012 50.9789 85.3214 50.9789 85.3214C50.9789 85.3214 50.6701 83.0934 51.389 81.7455C52.1079 80.3976 53.693 79.0613 53.693 79.0613Z" fill="#701621"/>
<path d="M54.4602 78.9991C54.4786 78.9115 55.8887 79.2525 56.6905 80.7455C57.4924 82.2386 58.6006 85.6854 58.6006 85.6854C58.6006 85.6854 55.5892 83.909 55.0178 82.4206C54.4464 80.9345 54.3588 79.4944 54.4602 78.9991Z" fill="#701621"/>
<path d="M107.159 55.8505C105.546 55.4565 102.912 54.2377 101.235 54.2308C99.56 54.2238 98.59 54.9496 98.59 54.9496C98.59 54.9496 100.051 56.7191 101.954 56.8758C103.859 57.0302 105.875 56.6431 107.159 55.8505Z" fill="#701621"/>
<path d="M100.632 52.127C100.632 52.127 97.752 52.362 96.5355 52.8274C95.3189 53.2928 93.7407 54.3803 93.7407 54.3803C93.7407 54.3803 96.1876 55.1268 97.623 54.5531C99.0607 53.9794 100.316 52.5739 100.632 52.127Z" fill="#701621"/>
<path d="M95.8155 51.0693C95.8155 51.0693 91.7973 51.5232 90.6084 52.2121C89.4195 52.9011 88.772 54.2812 88.772 54.2812C88.772 54.2812 92.03 54.1222 93.0806 53.613C94.1336 53.1038 95.44 51.8228 95.8155 51.0693Z" fill="#701621"/>
<path d="M88.7869 54.9011C88.7869 54.9011 90.4412 54.6177 91.4343 55.1868C92.4273 55.7559 95.1899 58.2673 95.5677 58.8434C95.5677 58.8434 92.6693 59.1268 91.1117 57.954C89.5565 56.7766 88.8399 55.2606 88.7869 54.9011Z" fill="#701621"/>
<path d="M93.9502 55.378C93.9502 55.378 96.3925 54.961 97.4224 55.6868C98.4523 56.4125 100.367 58.606 101.298 58.9747C101.298 58.9747 98.7495 59.6175 96.828 58.1129C94.9064 56.613 94.1069 55.6176 93.9502 55.378Z" fill="#701621"/>
<path d="M91.2291 50.6892C91.2291 50.6892 87.0311 51.2053 85.9206 52.0463C84.81 52.8873 84.2156 53.908 84.2156 53.908C84.2156 53.908 87.674 53.9932 88.7131 53.0578C89.7545 52.1223 90.7499 51.415 91.2291 50.6892Z" fill="#701621"/>
<path d="M83.9668 54.7882C83.9668 54.7882 86.4252 54.5025 87.6233 55.5462C88.8237 56.59 90.2085 58.7051 90.2085 58.7051C90.2085 58.7051 87.5703 58.1867 86.3884 57.1844C85.2087 56.1822 84.1166 55.2283 83.9668 54.7882Z" fill="#701621"/>
<path d="M79.1625 54.8388C79.1625 54.8388 81.4067 54.3711 82.6946 55.3388C83.9826 56.3088 85.1254 58.1567 85.1254 58.1567C85.1254 58.1567 82.8767 58.2442 81.6071 57.3963C80.3376 56.5484 79.1625 54.8388 79.1625 54.8388Z" fill="#701621"/>
<path d="M79.1784 54.0693C79.0932 54.044 79.5724 52.6731 81.1346 52.0233C82.699 51.3736 86.2404 50.6086 86.2404 50.6086C86.2404 50.6086 84.1759 53.4288 82.6391 53.8527C81.1023 54.2744 79.66 54.2191 79.1784 54.0693Z" fill="#701621"/>
<path d="M2.83838 55.3064C4.48347 55.5392 7.22529 56.493 8.89112 56.334C10.5593 56.1751 11.4532 55.3571 11.4532 55.3571C11.4532 55.3571 9.82426 53.7397 7.91651 53.772C6.00875 53.8088 4.03879 54.3917 2.83838 55.3064Z" fill="#701621"/>
<path d="M9.70288 58.3709C9.70288 58.3709 12.5438 57.8525 13.7096 57.2696C14.8755 56.6867 16.3362 55.4494 16.3362 55.4494C16.3362 55.4494 13.8294 54.9471 12.4562 55.6614C11.083 56.3756 9.97476 57.8917 9.70288 58.3709Z" fill="#701621"/>
<path d="M14.599 58.9468C14.599 58.9468 18.5527 58.0989 19.6679 57.2971C20.7831 56.4953 21.2923 55.0576 21.2923 55.0576C21.2923 55.0576 18.0643 55.5369 17.0689 56.1474C16.0736 56.7557 14.8985 58.1612 14.599 58.9468Z" fill="#701621"/>
<path d="M21.2185 54.4425C21.2185 54.4425 19.6011 54.8872 18.555 54.4195C17.509 53.9518 14.5137 51.7237 14.0806 51.1892C14.0806 51.1892 16.9376 50.6224 18.6011 51.6362C20.2669 52.65 21.131 54.0877 21.2185 54.4425Z" fill="#701621"/>
<path d="M16.0312 54.4747C16.0312 54.4747 13.6419 55.1313 12.5452 54.5092C11.4484 53.8871 9.32869 51.8941 8.3656 51.6177C8.3656 51.6177 10.8402 50.726 12.8977 52.0347C14.9575 53.3411 15.8538 54.2535 16.0312 54.4747Z" fill="#701621"/>
<path d="M19.2021 58.8755C19.2021 58.8755 23.3286 57.9493 24.3516 57.0023C25.3746 56.0554 25.8654 54.9817 25.8654 54.9817C25.8654 54.9817 22.4162 55.2374 21.4716 56.2697C20.5292 57.3019 19.6076 58.106 19.2021 58.8755Z" fill="#701621"/>
<path d="M26.0238 54.0783C26.0238 54.0783 23.6069 54.606 22.3097 53.6843C21.0125 52.7627 19.425 50.7974 19.425 50.7974C19.425 50.7974 22.1001 51.0531 23.3765 51.9333C24.6529 52.8134 25.8326 53.6567 26.0238 54.0783Z" fill="#701621"/>
<path d="M30.8008 53.5555C30.8008 53.5555 28.6142 54.2421 27.2364 53.4057C25.8609 52.5693 24.5406 50.8413 24.5406 50.8413C24.5406 50.8413 26.7687 50.5326 28.1165 51.2514C29.4644 51.9703 30.8008 53.5555 30.8008 53.5555Z" fill="#701621"/>
<path d="M30.8605 54.3228C30.9481 54.3412 30.6071 55.7513 29.1141 56.5531C27.6211 57.3526 24.1742 58.4632 24.1742 58.4632C24.1742 58.4632 25.9506 55.4518 27.439 54.8804C28.9251 54.3067 30.3652 54.2214 30.8605 54.3228Z" fill="#701621"/>
<path d="M70.5125 70.3796C70.5125 70.3796 70.5378 71.5063 72.328 73.285C74.1183 75.0638 75.7496 76.702 75.7496 76.702C75.7496 76.702 75.5307 77.0959 75.7357 77.3379C75.9408 77.5798 76.4154 77.6144 76.4154 77.6144C76.4154 77.6144 75.8855 78.5337 78.079 81.2317C80.2724 83.9298 82.9083 85.8053 83.2262 85.5196C83.5442 85.2362 82.2055 83.1326 82.2055 83.1326C82.2055 83.1326 85.6201 85.008 86.1777 84.2892C86.7376 83.5703 84.0695 80.4115 82.8645 79.6788C81.5143 78.8585 77.7057 77.1328 76.8509 77.301C76.8509 77.301 76.8624 76.7941 76.579 76.6444C76.2956 76.4946 76.0237 76.5891 76.0237 76.5891C76.0237 76.5891 72.1414 72.7136 71.5055 71.9003C70.8673 71.087 70.5125 70.3796 70.5125 70.3796Z" fill="#701621"/>
<path d="M67.8409 38.5676C67.8409 38.5676 68.9676 38.5423 70.7463 36.752C72.5251 34.9618 74.1633 33.3305 74.1633 33.3305C74.1633 33.3305 74.5573 33.5494 74.7992 33.3444C75.0411 33.1393 75.0757 32.6647 75.0757 32.6647C75.0757 32.6647 75.995 33.1946 78.693 31.0011C81.3911 28.8077 83.2666 26.1718 82.9809 25.8539C82.6975 25.5359 80.5939 26.8746 80.5939 26.8746C80.5939 26.8746 82.4694 23.46 81.7505 22.9024C81.0316 22.3425 77.8728 25.0106 77.1401 26.2156C76.3198 27.5658 74.5941 31.3744 74.7623 32.2292C74.7623 32.2292 74.2554 32.2177 74.1057 32.5011C73.9559 32.7845 74.0504 33.0563 74.0504 33.0563C74.0504 33.0563 70.1749 36.9387 69.3616 37.5746C68.5483 38.2151 67.8409 38.5676 67.8409 38.5676Z" fill="#701621"/>
<path d="M41.3696 71.7114C41.3696 71.7114 40.243 71.7368 38.4642 73.527C36.6855 75.3173 35.0473 76.9485 35.0473 76.9485C35.0473 76.9485 34.6533 76.7297 34.4114 76.9347C34.1695 77.1398 34.1349 77.6144 34.1349 77.6144C34.1349 77.6144 33.2156 77.0845 30.5176 79.2779C27.8195 81.4714 25.944 84.1072 26.2297 84.4252C26.5131 84.7431 28.6167 83.4045 28.6167 83.4045C28.6167 83.4045 26.7412 86.8191 27.4601 87.3767C28.1789 87.9366 31.3378 85.2685 32.0705 84.0634C32.8907 82.7133 34.6165 78.9047 34.4483 78.0499C34.4483 78.0499 34.9552 78.0614 35.1049 77.778C35.2547 77.4946 35.1602 77.2227 35.1602 77.2227C35.1602 77.2227 39.0356 73.3404 39.849 72.7045C40.66 72.0662 41.3696 71.7114 41.3696 71.7114Z" fill="#701621"/>
<path d="M42.9287 38.4202C43.0231 38.0492 41.6822 37.6714 40.9864 37.3488C40.2905 37.0262 36.7746 34.6047 35.6847 33.1785C35.6847 33.1785 35.7631 32.872 35.5442 32.5287C35.3253 32.1854 35.0027 32.0817 34.8345 32.1002C34.8345 32.1002 34.6963 29.932 33.5189 27.9713C32.3439 26.0082 31.0835 24.4553 30.4476 24.5383C29.8117 24.6212 31.0766 26.8723 31.0766 26.8723L27.3072 23.9162C27.3072 23.9162 26.8187 23.4208 26.457 23.718C26.0953 24.0152 27.0883 26.3608 27.7473 27.2271C28.4062 28.0934 31.208 32.1739 34.4475 32.8858C34.4475 32.8858 34.5972 33.2683 34.959 33.3651C35.3092 33.4595 35.482 33.3835 35.482 33.3835C35.482 33.3835 39.1155 37.0884 41.2605 38.0515C41.4909 38.1506 42.8549 38.7082 42.9287 38.4202Z" fill="#701621"/>
<path d="M24.7584 21.7574C24.6801 21.7919 24.5441 21.7827 24.4289 21.6491C24.3137 21.5154 24.3644 21.4279 24.3644 21.4279C24.3644 21.4279 23.7584 21.7574 22.7884 21.1629C21.8184 20.5685 20.5604 19.3727 20.6848 19.0363C20.8092 18.6999 22.4728 19.2713 22.8737 19.58C22.8737 19.58 22.3599 18.5432 22.6663 18.3566C22.9727 18.17 23.9197 19.3496 24.0994 19.6215C24.2791 19.8934 24.7469 20.9233 24.7008 21.1099C24.7008 21.1099 24.8436 21.0708 24.9404 21.2251C25.0372 21.3795 25.0003 21.5177 24.9473 21.5938C24.9105 21.6445 24.816 21.732 24.7584 21.7574Z" fill="#701621"/>
<path d="M39.0494 13.3567C39.2361 13.0042 39.395 11.7669 39.3029 11.1034C39.2061 10.4052 38.8236 8.78318 38.4412 8.80392C38.1094 8.82235 38.273 10.138 38.273 10.138C38.273 10.138 37.0495 7.49752 36.5979 7.66111C36.0588 7.85695 36.5564 10.3868 37.3375 11.8752C37.6278 12.4305 38.3582 13.3729 38.7384 13.6632C38.7384 13.6632 38.9504 14.2184 39.296 13.988C39.5402 13.8244 39.0494 13.3567 39.0494 13.3567Z" fill="#701621"/>
<path d="M18.1419 36.5884C17.9944 36.2174 17.1511 35.2981 16.5843 34.941C15.9876 34.5631 14.5015 33.8097 14.2734 34.1139C14.0729 34.3788 15.1835 35.1046 15.1835 35.1046C15.1835 35.1046 12.3771 34.335 12.2113 34.7843C12.0131 35.3235 14.2665 36.5746 15.907 36.9386C16.5175 37.0746 17.7087 37.1252 18.1764 37.0239C18.1764 37.0239 18.7386 37.2197 18.7847 36.8073C18.817 36.517 18.1419 36.5884 18.1419 36.5884Z" fill="#701621"/>
<path d="M86.022 21.5706C85.9874 21.4923 85.9967 21.3564 86.1303 21.2412C86.2639 21.126 86.3515 21.1767 86.3515 21.1767C86.3515 21.1767 86.022 20.5707 86.6164 19.6007C87.2109 18.6307 88.4067 17.3727 88.7431 17.4971C89.0795 17.6215 88.5081 19.285 88.1993 19.6859C88.1993 19.6859 89.2361 19.1721 89.4228 19.4786C89.6094 19.785 88.4297 20.732 88.1578 20.9117C87.886 21.0914 86.8561 21.5591 86.6694 21.513C86.6694 21.513 86.7086 21.6559 86.5542 21.7527C86.3999 21.8494 86.2616 21.8126 86.1856 21.7596C86.1349 21.7227 86.0473 21.6282 86.022 21.5706Z" fill="#701621"/>
<path d="M94.6801 35.5309C95.0326 35.7175 96.2699 35.8765 96.9334 35.7843C97.6315 35.6875 99.2536 35.3051 99.2329 34.9226C99.2144 34.5908 97.8988 34.7544 97.8988 34.7544C97.8988 34.7544 100.539 33.531 100.376 33.0794C100.18 32.5402 97.65 33.0379 96.1616 33.819C95.6063 34.1093 94.6639 34.8397 94.3736 35.2198C94.3736 35.2198 93.8184 35.4318 94.0511 35.7774C94.2123 36.0216 94.6801 35.5309 94.6801 35.5309Z" fill="#701621"/>
<path d="M72.0316 14.2207C72.4026 14.0732 73.3219 13.2299 73.679 12.6631C74.0569 12.0664 74.8103 10.5803 74.5062 10.3522C74.2412 10.1517 73.5154 11.2623 73.5154 11.2623C73.5154 11.2623 74.285 8.45595 73.8357 8.29005C73.2966 8.09191 72.0454 10.3453 71.6814 11.9857C71.5455 12.5963 71.4948 13.7875 71.5961 14.2552C71.5961 14.2552 71.4003 14.8174 71.8127 14.8635C72.1053 14.8958 72.0316 14.2207 72.0316 14.2207Z" fill="#701621"/>
<path d="M24.755 88.3074C24.7826 88.3904 24.7596 88.524 24.6144 88.6254C24.4693 88.7268 24.3886 88.6668 24.3886 88.6668C24.3886 88.6668 24.6536 89.3028 23.9647 90.206C23.2758 91.1115 21.9556 92.2381 21.633 92.0815C21.3104 91.9248 22.0477 90.3281 22.3979 89.9594C22.3979 89.9594 21.3127 90.3649 21.1583 90.0401C21.004 89.7152 22.2735 88.895 22.5615 88.7452C22.8495 88.5954 23.9232 88.236 24.1029 88.2982C24.1029 88.2982 24.0776 88.153 24.2412 88.0724C24.4048 87.9918 24.5384 88.0425 24.6075 88.1047C24.6582 88.1461 24.7365 88.2475 24.755 88.3074Z" fill="#701621"/>
<path d="M17.561 72.3587C17.2292 72.1375 16.015 71.8518 15.3468 71.8748C14.6418 71.9002 12.9898 72.1145 12.9713 72.4969C12.9552 72.8287 14.28 72.8011 14.28 72.8011C14.28 72.8011 11.529 73.748 11.6442 74.2135C11.7848 74.771 14.3515 74.5314 15.9113 73.9093C16.4942 73.6766 17.5057 73.0476 17.8329 72.6997C17.8329 72.6997 18.4066 72.5453 18.2131 72.1767C18.0771 71.9186 17.561 72.3587 17.561 72.3587Z" fill="#701621"/>
<path d="M39.2589 95.0722C38.8787 95.1943 37.9018 95.9684 37.5055 96.5076C37.0861 97.0767 36.229 98.5029 36.517 98.7564C36.7682 98.9729 37.57 97.9177 37.57 97.9177C37.57 97.9177 36.6023 100.662 37.04 100.86C37.5631 101.097 38.9708 98.9361 39.4524 97.3278C39.6321 96.7265 39.768 95.5445 39.6966 95.0699C39.6966 95.0699 39.9316 94.5238 39.5238 94.4478C39.2335 94.3948 39.2589 95.0722 39.2589 95.0722Z" fill="#701621"/>
<path d="M87.3469 87.2062C87.4275 87.174 87.5635 87.1901 87.6718 87.3284C87.7801 87.4666 87.7248 87.5518 87.7248 87.5518C87.7248 87.5518 88.3445 87.2523 89.2869 87.8905C90.2269 88.5311 91.4274 89.7868 91.2868 90.1163C91.1463 90.4457 89.5127 89.7983 89.1256 89.4688C89.1256 89.4688 89.5887 90.531 89.2731 90.7015C88.9574 90.872 88.0681 89.6508 87.9022 89.3698C87.7363 89.091 87.3192 88.038 87.3722 87.8537C87.3722 87.8537 87.2271 87.8859 87.1395 87.727C87.0497 87.568 87.0934 87.432 87.151 87.3583C87.1902 87.3122 87.2893 87.2293 87.3469 87.2062Z" fill="#701621"/>
<path d="M71.1855 94.3857C71.038 94.7566 71.0196 96.0031 71.1855 96.6528C71.3606 97.3371 71.9205 98.9062 72.2983 98.8417C72.6255 98.7864 72.3168 97.4961 72.3168 97.4961C72.3168 97.4961 73.8259 99.9845 74.2568 99.7702C74.7706 99.5145 73.9918 97.0584 73.0518 95.6667C72.7016 95.1483 71.8721 94.2935 71.4597 94.0447C71.4597 94.0447 71.1855 93.517 70.8698 93.7843C70.644 93.9755 71.1855 94.3857 71.1855 94.3857Z" fill="#701621"/>
<path d="M94.5484 72.057C94.6912 72.4303 95.5184 73.3634 96.0783 73.7297C96.6681 74.1168 98.1427 74.8956 98.3777 74.5938C98.5805 74.3311 97.4837 73.5892 97.4837 73.5892C97.4837 73.5892 100.276 74.4048 100.451 73.9555C100.659 73.421 98.4261 72.133 96.7925 71.7413C96.1843 71.5962 94.9931 71.5248 94.523 71.6215C94.523 71.6215 93.9655 71.4165 93.9125 71.8289C93.8733 72.1192 94.5484 72.057 94.5484 72.057Z" fill="#701621"/>
<path d="M25.6414 38.8233C24.3005 37.7657 23.3973 38.2312 23.183 38.5883C22.7176 39.3694 22.577 39.8486 22.577 39.8486C22.577 39.8486 21.9688 40.3854 21.9088 40.9039C21.8374 41.5236 22.7867 41.9153 24.6115 41.8831C25.2912 41.8716 26.563 41.6204 27.0308 41.3923C27.0284 41.3923 27.1966 40.0514 25.6414 38.8233Z" fill="#701621"/>
<path d="M65.4861 84.538C65.099 86.2015 65.9054 86.8213 66.3178 86.8628C67.2233 86.9527 67.7164 86.8766 67.7164 86.8766C67.7164 86.8766 68.4606 87.1992 68.956 87.0333C69.5481 86.8351 69.4997 85.8099 68.6933 84.1717C68.3938 83.5611 67.6265 82.5174 67.221 82.1902C67.2187 82.1902 65.9354 82.6095 65.4861 84.538Z" fill="#701621"/>
<path d="M24.218 67.9027C22.5107 67.8358 22.0545 68.7436 22.0913 69.1584C22.1743 70.0639 22.5037 70.6099 22.5037 70.6099C22.5037 70.6099 22.43 71.5569 22.6858 72.0108C22.9922 72.5545 24.3654 72.3817 25.8216 71.2827C26.3653 70.8726 26.7939 69.9602 26.8492 69.163C26.8492 69.163 26.1971 67.981 24.218 67.9027Z" fill="#701621"/>
<path d="M69.0287 24.612C69.9111 23.1489 69.3374 22.3103 68.9572 22.1444C68.1255 21.778 67.4873 21.8057 67.4873 21.8057C67.4873 21.8057 66.6947 21.285 66.1717 21.2896C65.5473 21.2942 65.0358 22.5822 65.2961 24.3885C65.3929 25.0613 65.985 25.8793 66.6555 26.3101C66.6555 26.3078 68.0057 26.3078 69.0287 24.612Z" fill="#701621"/>
<path d="M103.562 63.7116C103.716 63.1747 103.463 62.9582 103.327 62.9374C103.032 62.8936 102.871 62.9098 102.871 62.9098C102.871 62.9098 102.633 62.7923 102.468 62.8383C102.272 62.8936 102.269 63.23 102.507 63.7784C102.594 63.9835 102.829 64.336 102.956 64.4512C102.956 64.4512 103.382 64.336 103.562 63.7116Z" fill="#701621"/>
<path d="M101.51 64.1034C100.964 63.9813 100.764 64.2486 100.752 64.3845C100.727 64.6817 100.752 64.843 100.752 64.843C100.752 64.843 100.826 65.1103 100.948 65.237C101.091 65.3821 101.273 65.5112 101.787 65.207C102.105 65.0181 102.181 64.7969 102.326 64.714C102.326 64.714 102.144 64.2439 101.51 64.1034Z" fill="#701621"/>
<path d="M102.859 65.9143C103.207 66.352 103.53 66.2714 103.624 66.1746C103.832 65.9603 103.896 65.7622 103.896 65.7622C103.896 65.7622 104.147 65.5779 104.205 65.4166C104.274 65.2254 103.938 64.9212 103.355 64.7945C103.136 64.7484 102.818 64.836 102.61 64.9926C102.61 64.9926 102.456 65.4074 102.859 65.9143Z" fill="#701621"/>
<path d="M95.8364 81.6372C95.5092 81.1833 95.182 81.2501 95.083 81.3423C94.8664 81.5474 94.7788 81.6856 94.7788 81.6856C94.7788 81.6856 94.5392 81.8008 94.4747 81.9575C94.3964 82.1464 94.6613 82.3538 95.2373 82.5082C95.4539 82.5658 95.8756 82.6003 96.0438 82.5704C96.0438 82.5681 96.2166 82.1625 95.8364 81.6372Z" fill="#701621"/>
<path d="M94.8767 83.492C94.4436 83.8469 94.5288 84.1694 94.6302 84.2616C94.8468 84.4644 94.9896 84.545 94.9896 84.545C94.9896 84.545 95.2454 84.6533 95.4205 84.6349C95.6233 84.6141 95.8375 84.5496 95.9159 83.9552C95.9643 83.5865 95.8352 83.393 95.8606 83.2271C95.8606 83.2271 95.3767 83.0819 94.8767 83.492Z" fill="#701621"/>
<path d="M96.5215 82.8723C96.3901 83.416 96.6505 83.6211 96.7864 83.6372C97.0813 83.6695 97.2795 83.598 97.2795 83.598C97.2795 83.598 97.579 83.6833 97.7403 83.6303C97.9338 83.5681 97.9684 83.1142 97.7103 82.5773C97.6136 82.3769 97.3486 82.1787 97.0975 82.1096C97.0975 82.1096 96.6758 82.241 96.5215 82.8723Z" fill="#701621"/>
<path d="M82.3626 96.1436C82.0355 95.6897 81.7083 95.7565 81.6092 95.8486C81.3926 96.0537 81.3051 96.1919 81.3051 96.1919C81.3051 96.1919 81.0655 96.3072 81.0009 96.4638C80.9226 96.6528 81.1876 96.8601 81.7636 97.0145C81.9802 97.0721 82.4018 97.1067 82.57 97.0767C82.57 97.0767 82.7428 96.6689 82.3626 96.1436Z" fill="#701621"/>
<path d="M81.4015 97.9982C80.9683 98.353 81.0536 98.6756 81.1549 98.7677C81.3715 98.9705 81.5144 99.0511 81.5144 99.0511C81.5144 99.0511 81.7701 99.1594 81.9452 99.141C82.148 99.1202 82.3622 99.0557 82.4406 98.4613C82.489 98.0926 82.3599 97.8991 82.3853 97.7332C82.3853 97.7332 81.9037 97.588 81.4015 97.9982Z" fill="#701621"/>
<path d="M83.0477 97.3784C82.9164 97.9221 83.1767 98.1272 83.3127 98.1433C83.6076 98.1756 83.8057 98.1042 83.8057 98.1042C83.8057 98.1042 84.1053 98.1894 84.2666 98.1364C84.4601 98.0742 84.4947 97.6203 84.2366 97.0834C84.1398 96.883 83.8749 96.6848 83.6237 96.6157C83.6237 96.6157 83.2021 96.7471 83.0477 97.3784Z" fill="#701621"/>
<path d="M66.1325 103.657C65.8053 103.203 65.4781 103.27 65.3791 103.362C65.1625 103.567 65.0749 103.705 65.0749 103.705C65.0749 103.705 64.8353 103.821 64.7708 103.977C64.6924 104.166 64.9574 104.374 65.5334 104.528C65.75 104.586 66.1717 104.62 66.3399 104.59C66.3399 104.59 66.5127 104.182 66.1325 103.657Z" fill="#701621"/>
<path d="M65.1728 105.514C64.7397 105.869 64.8249 106.191 64.9263 106.284C65.1429 106.486 65.2857 106.567 65.2857 106.567C65.2857 106.567 65.5415 106.675 65.7166 106.657C65.9194 106.636 66.1336 106.572 66.212 105.977C66.2604 105.608 66.1313 105.415 66.1567 105.249C66.1567 105.249 65.6751 105.102 65.1728 105.514Z" fill="#701621"/>
<path d="M66.82 104.894C66.6887 105.438 66.9491 105.643 67.085 105.659C67.3799 105.691 67.5781 105.62 67.5781 105.62C67.5781 105.62 67.8776 105.705 68.0389 105.652C68.2324 105.59 68.267 105.136 68.0089 104.599C67.9122 104.399 67.6472 104.201 67.3961 104.132C67.3938 104.129 66.9721 104.263 66.82 104.894Z" fill="#701621"/>
<path d="M45.2763 105.768C45.8132 105.922 46.0298 105.669 46.0505 105.533C46.0943 105.238 46.0782 105.076 46.0782 105.076C46.0782 105.076 46.1957 104.839 46.1496 104.673C46.0943 104.477 45.7579 104.475 45.2095 104.712C45.0045 104.8 44.6519 105.035 44.5367 105.162C44.5367 105.162 44.6519 105.588 45.2763 105.768Z" fill="#701621"/>
<path d="M44.8855 103.715C45.0076 103.169 44.7403 102.968 44.6044 102.957C44.3071 102.931 44.1459 102.957 44.1459 102.957C44.1459 102.957 43.8786 103.03 43.7519 103.152C43.6067 103.295 43.4777 103.477 43.7818 103.991C43.9707 104.309 44.1919 104.385 44.2749 104.53C44.2772 104.53 44.7449 104.348 44.8855 103.715Z" fill="#701621"/>
<path d="M43.0748 105.065C42.637 105.413 42.7177 105.735 42.8144 105.83C43.0287 106.037 43.2269 106.102 43.2269 106.102C43.2269 106.102 43.4112 106.353 43.5725 106.41C43.7637 106.479 44.0678 106.143 44.1946 105.56C44.2406 105.341 44.1531 105.023 43.9964 104.816C43.9987 104.816 43.584 104.662 43.0748 105.065Z" fill="#701621"/>
<path d="M30.3792 98.0651C30.8331 97.7379 30.7662 97.4107 30.6741 97.3117C30.469 97.0951 30.3308 97.0075 30.3308 97.0075C30.3308 97.0075 30.2156 96.7679 30.0589 96.7034C29.87 96.6251 29.6626 96.89 29.5082 97.466C29.4506 97.6826 29.4161 98.1043 29.446 98.2725C29.446 98.2725 29.8538 98.4453 30.3792 98.0651Z" fill="#701621"/>
<path d="M28.5223 97.1044C28.1675 96.6712 27.8449 96.7565 27.7527 96.8579C27.55 97.0744 27.4693 97.2173 27.4693 97.2173C27.4693 97.2173 27.3611 97.473 27.3795 97.6482C27.4002 97.8509 27.4647 98.0652 28.0592 98.1435C28.4278 98.1919 28.6214 98.0629 28.7873 98.0882C28.7873 98.0882 28.9347 97.6067 28.5223 97.1044Z" fill="#701621"/>
<path d="M29.1437 98.7494C28.5999 98.618 28.3949 98.8784 28.3787 99.0143C28.3465 99.3092 28.4179 99.5074 28.4179 99.5074C28.4179 99.5074 28.3327 99.8069 28.3856 99.9682C28.4479 100.162 28.9018 100.196 29.4386 99.9383C29.6391 99.8415 29.8372 99.5765 29.9063 99.3254C29.9063 99.3254 29.7727 98.9037 29.1437 98.7494Z" fill="#701621"/>
<path d="M15.3084 83.3515C15.7623 83.0243 15.6955 82.6971 15.6033 82.598C15.3983 82.3815 15.26 82.2939 15.26 82.2939C15.26 82.2939 15.1448 82.0543 14.9882 81.9898C14.7992 81.9114 14.5919 82.1764 14.4375 82.7524C14.3799 82.969 14.3453 83.3906 14.3753 83.5588C14.3753 83.5588 14.7808 83.7316 15.3084 83.3515Z" fill="#701621"/>
<path d="M13.4501 82.3908C13.0953 81.9576 12.7727 82.0429 12.6805 82.1442C12.4778 82.3608 12.3971 82.5037 12.3971 82.5037C12.3971 82.5037 12.2889 82.7594 12.3073 82.9345C12.328 83.1373 12.3925 83.3516 12.987 83.4299C13.3556 83.4783 13.5492 83.3493 13.7151 83.3746C13.7151 83.3746 13.8602 82.8931 13.4501 82.3908Z" fill="#701621"/>
<path d="M14.0706 84.0357C13.5268 83.9044 13.3217 84.1648 13.3056 84.3007C13.2734 84.5956 13.3448 84.7938 13.3448 84.7938C13.3448 84.7938 13.2595 85.0933 13.3125 85.2546C13.3747 85.4481 13.8286 85.4827 14.3655 85.2246C14.5659 85.1279 14.7641 84.8629 14.8332 84.6118C14.8332 84.6118 14.7019 84.1901 14.0706 84.0357Z" fill="#701621"/>
<path d="M6.47607 65.3407C6.73643 65.8361 7.07052 65.8154 7.18111 65.737C7.42304 65.5642 7.52902 65.4398 7.52902 65.4398C7.52902 65.4398 7.78247 65.3591 7.87002 65.2117C7.9737 65.0366 7.74099 64.7924 7.19033 64.5596C6.98527 64.4721 6.57054 64.3799 6.40004 64.3868C6.40234 64.3891 6.17424 64.767 6.47607 65.3407Z" fill="#701621"/>
<path d="M5.59451 64.7116C5.23968 64.2784 4.91711 64.3637 4.82495 64.465C4.6222 64.6816 4.54155 64.8245 4.54155 64.8245C4.54155 64.8245 4.43326 65.0802 4.4517 65.2553C4.47243 65.4581 4.53695 65.6724 5.13139 65.7507C5.50004 65.7991 5.69358 65.6701 5.85947 65.6954C5.85947 65.6954 6.00463 65.2139 5.59451 64.7116Z" fill="#701621"/>
<path d="M6.21344 66.3568C5.66968 66.2255 5.46462 66.4858 5.4485 66.6217C5.41624 66.9167 5.48766 67.1148 5.48766 67.1148C5.48766 67.1148 5.40241 67.4143 5.45541 67.5756C5.51762 67.7692 5.97151 67.8037 6.50836 67.5457C6.70881 67.4489 6.90696 67.1839 6.97608 66.9328C6.97608 66.9328 6.84475 66.5112 6.21344 66.3568Z" fill="#701621"/>
<path d="M7.83801 43.4199C8.38407 43.5398 8.58453 43.2725 8.59605 43.1366C8.62139 42.8393 8.59374 42.678 8.59374 42.678C8.59374 42.678 8.69512 42.4338 8.63982 42.2702C8.57301 42.0767 8.23661 42.0974 7.70438 42.3693C7.50623 42.4707 7.16754 42.7264 7.06155 42.8601C7.05925 42.8647 7.2021 43.2817 7.83801 43.4199Z" fill="#701621"/>
<path d="M9.46676 42.1319C10.0128 42.254 10.2133 41.9867 10.2248 41.8508C10.2501 41.5535 10.2248 41.3923 10.2248 41.3923C10.2248 41.3923 10.1511 41.125 10.0289 40.9983C9.88609 40.8531 9.70407 40.7241 9.19027 41.0282C8.87231 41.2171 8.79628 41.4383 8.65112 41.5213C8.65112 41.5213 8.83314 41.9913 9.46676 42.1319Z" fill="#701621"/>
<path d="M8.11695 40.3188C7.76904 39.881 7.44647 39.9617 7.35201 40.0585C7.14464 40.2727 7.08013 40.4709 7.08013 40.4709C7.08013 40.4709 6.82899 40.6552 6.77139 40.8165C6.70227 41.0077 7.03866 41.3119 7.62158 41.4386C7.84047 41.4847 8.15843 41.3971 8.36579 41.2404C8.36579 41.2427 8.52016 40.828 8.11695 40.3188Z" fill="#701621"/>
<path d="M16.0409 25.9623C15.4879 25.8816 15.3082 26.1627 15.3059 26.2987C15.3013 26.5959 15.3405 26.7549 15.3405 26.7549C15.3405 26.7549 15.2552 27.006 15.3243 27.1627C15.405 27.3493 15.7391 27.3055 16.2506 26.9968C16.4418 26.8816 16.7598 26.6028 16.8565 26.46C16.8565 26.4623 16.6837 26.0544 16.0409 25.9623Z" fill="#701621"/>
<path d="M16.2503 25.1098C16.6835 24.7549 16.5982 24.4324 16.4969 24.3402C16.2803 24.1375 16.1374 24.0568 16.1374 24.0568C16.1374 24.0568 15.8817 23.9485 15.7066 23.967C15.5038 23.9877 15.2896 24.0522 15.2112 24.6467C15.1628 25.0153 15.2919 25.2088 15.2665 25.3747C15.2665 25.3747 15.7481 25.5199 16.2503 25.1098Z" fill="#701621"/>
<path d="M14.6056 25.7295C14.737 25.1857 14.4766 24.9807 14.3407 24.9645C14.0458 24.9323 13.8476 25.0037 13.8476 25.0037C13.8476 25.0037 13.5481 24.9185 13.3868 24.9715C13.1933 25.0337 13.1587 25.4876 13.4168 26.0244C13.5135 26.2249 13.7785 26.423 14.0296 26.4921C14.0296 26.4921 14.4513 26.3585 14.6056 25.7295Z" fill="#701621"/>
<path d="M28.4612 13.336C28.7884 13.7899 29.1156 13.7231 29.2146 13.6309C29.4312 13.4259 29.5188 13.2876 29.5188 13.2876C29.5188 13.2876 29.7584 13.1724 29.8229 13.0157C29.9012 12.8268 29.6363 12.6194 29.0603 12.4651C28.8437 12.4075 28.422 12.3729 28.2538 12.4029C28.2538 12.4029 28.081 12.8107 28.4612 13.336Z" fill="#701621"/>
<path d="M29.4226 11.4811C29.8558 11.1263 29.7706 10.8037 29.6692 10.7116C29.4526 10.5088 29.3097 10.4282 29.3097 10.4282C29.3097 10.4282 29.054 10.3199 28.8789 10.3383C28.6761 10.359 28.4619 10.4235 28.3835 11.018C28.3351 11.3866 28.4642 11.5802 28.4388 11.7461C28.4388 11.7461 28.9204 11.8912 29.4226 11.4811Z" fill="#701621"/>
<path d="M27.7423 11.6216C27.498 11.1171 27.1662 11.1263 27.051 11.2C26.8022 11.3636 26.6962 11.5433 26.6962 11.5433C26.6962 11.5433 26.4105 11.6677 26.3183 11.8129C26.2078 11.9857 26.4704 12.3543 27.0119 12.6055C27.2146 12.6999 27.5441 12.6815 27.7814 12.5755C27.7837 12.5755 28.0233 12.2046 27.7423 11.6216Z" fill="#701621"/>
<path d="M45.8027 6.99063C46.3579 7.05514 46.5308 6.76944 46.5285 6.6335C46.5238 6.33628 46.4801 6.1773 46.4801 6.1773C46.4801 6.1773 46.5584 5.92385 46.4847 5.76718C46.3994 5.58285 46.0653 5.63585 45.563 5.95841C45.3764 6.07822 45.0654 6.36623 44.9732 6.51139C44.9732 6.51369 45.1575 6.9169 45.8027 6.99063Z" fill="#701621"/>
<path d="M46.5389 4.3363C46.5389 3.77642 46.2347 3.63817 46.1011 3.65661C45.8062 3.69577 45.6541 3.75568 45.6541 3.75568C45.6541 3.75568 45.4076 3.88471 45.3108 4.03217C45.1979 4.20267 45.1126 4.41003 45.5205 4.8455C45.7739 5.11507 46.0066 5.14041 46.1195 5.26483C46.1195 5.26714 46.5389 4.98604 46.5389 4.3363Z" fill="#701621"/>
<path d="M44.6735 5.43311C44.8048 4.88935 44.5445 4.68429 44.4085 4.66816C44.1136 4.6359 43.9155 4.70733 43.9155 4.70733C43.9155 4.70733 43.616 4.62208 43.4547 4.67507C43.2611 4.73728 43.2266 5.19118 43.4846 5.72802C43.5814 5.92848 43.8464 6.12662 44.0975 6.19575C44.0975 6.19575 44.5191 6.06211 44.6735 5.43311Z" fill="#701621"/>
<path d="M65.0982 4.30187C64.5568 4.44703 64.5038 4.7742 64.5545 4.90092C64.6674 5.17511 64.7665 5.30644 64.7665 5.30644C64.7665 5.30644 64.7872 5.5714 64.9116 5.68891C65.0591 5.82946 65.3494 5.65665 65.6973 5.1728C65.8263 4.99078 66.0107 4.61061 66.0429 4.44242C66.0429 4.44011 65.7249 4.13368 65.0982 4.30187Z" fill="#701621"/>
<path d="M66.7602 5.98599C66.3755 5.58048 66.0598 5.68877 65.9746 5.79476C65.7879 6.02516 65.7188 6.17493 65.7188 6.17493C65.7188 6.17493 65.629 6.43759 65.6612 6.6127C65.6981 6.81315 65.7764 7.02282 66.3732 7.05738C66.7441 7.07811 66.9284 6.93757 67.0943 6.94909C67.0943 6.94678 67.2072 6.45602 66.7602 5.98599Z" fill="#701621"/>
<path d="M67.6613 5.04371C68.099 4.6958 68.0184 4.37323 67.9216 4.27877C67.7074 4.0714 67.5092 4.00689 67.5092 4.00689C67.5092 4.00689 67.3249 3.75575 67.1636 3.69815C66.9724 3.62902 66.6682 3.96542 66.5415 4.54834C66.4954 4.76723 66.583 5.08519 66.7397 5.29255C66.7397 5.29255 67.1544 5.44692 67.6613 5.04371Z" fill="#701621"/>
<path d="M80.6952 13.2898C81.2044 13.5202 81.4555 13.3013 81.4947 13.1723C81.5823 12.8866 81.5892 12.7253 81.5892 12.7253C81.5892 12.7253 81.7412 12.5064 81.7182 12.3382C81.6929 12.1355 81.3588 12.0848 80.7827 12.2391C80.5685 12.2967 80.1837 12.4765 80.0524 12.5847C80.0524 12.5824 80.1031 13.0225 80.6952 13.2898Z" fill="#701621"/>
<path d="M82.589 12.2484C82.1904 12.6401 82.3056 12.9535 82.4116 13.0387C82.6466 13.223 82.7963 13.2875 82.7963 13.2875C82.7963 13.2875 83.0613 13.3728 83.2341 13.3382C83.4346 13.2991 83.6419 13.2138 83.6673 12.6171C83.6811 12.2461 83.5359 12.0641 83.5452 11.8959C83.5452 11.8959 83.0498 11.7945 82.589 12.2484Z" fill="#701621"/>
<path d="M81.7133 11.6633C82.2571 11.7946 82.4621 11.5342 82.4783 11.3983C82.5105 11.1034 82.4391 10.9052 82.4391 10.9052C82.4391 10.9052 82.5243 10.6057 82.4713 10.4444C82.4091 10.2509 81.9552 10.2163 81.4184 10.4744C81.218 10.5711 81.0198 10.8361 80.9507 11.0872C80.9507 11.0872 81.0843 11.5112 81.7133 11.6633Z" fill="#701621"/>
<path d="M94.8202 25.7294C94.2649 25.8008 94.1681 26.1188 94.2027 26.2501C94.2787 26.5381 94.3594 26.681 94.3594 26.681C94.3594 26.681 94.3455 26.9459 94.4538 27.0796C94.5829 27.2386 94.8916 27.1049 95.3017 26.6718C95.4538 26.5105 95.6865 26.1557 95.7418 25.9921C95.7372 25.9921 95.463 25.6465 94.8202 25.7294Z" fill="#701621"/>
<path d="M96.2127 26.5404C96.1943 27.1003 96.4915 27.2478 96.6275 27.234C96.9247 27.2063 97.0768 27.1487 97.0768 27.1487C97.0768 27.1487 97.3279 27.0289 97.4293 26.8837C97.5468 26.7178 97.639 26.5128 97.245 26.0635C97.0007 25.7847 96.768 25.7525 96.6597 25.6257C96.662 25.6257 96.2358 25.893 96.2127 26.5404Z" fill="#701621"/>
<path d="M96.328 24.0313C95.8556 23.7318 95.5768 23.9115 95.5192 24.0359C95.3925 24.3055 95.3971 24.5151 95.3971 24.5151C95.3971 24.5151 95.2197 24.7709 95.2174 24.9414C95.2151 25.1464 95.6321 25.3239 96.2243 25.2524C96.4455 25.2248 96.7173 25.0382 96.8648 24.8216C96.8648 24.8216 96.874 24.3792 96.328 24.0313Z" fill="#701621"/>
<path d="M101.737 45.2586C102.263 45.4521 102.498 45.2171 102.528 45.0835C102.594 44.7932 102.59 44.6296 102.59 44.6296C102.59 44.6296 102.726 44.4015 102.691 44.2333C102.652 44.0328 102.316 44.0075 101.751 44.201C101.541 44.2724 101.17 44.4798 101.046 44.5973C101.046 44.5996 101.129 45.0328 101.737 45.2586Z" fill="#701621"/>
<path d="M103.44 44.4384C103.263 44.9683 103.507 45.1964 103.641 45.2218C103.933 45.2794 104.097 45.2678 104.097 45.2678C104.097 45.2678 104.371 45.2241 104.509 45.1135C104.671 44.9867 104.818 44.8185 104.567 44.2748C104.413 43.9384 104.198 43.8416 104.131 43.6873C104.131 43.6919 103.645 43.8232 103.44 44.4384Z" fill="#701621"/>
<path d="M102.929 43.3737C103.473 43.505 103.678 43.2447 103.694 43.1087C103.726 42.8138 103.655 42.6157 103.655 42.6157C103.655 42.6157 103.74 42.3161 103.687 42.1549C103.625 41.9613 103.171 41.9268 102.634 42.1848C102.434 42.2816 102.235 42.5466 102.166 42.7977C102.166 42.7977 102.3 43.2216 102.929 43.3737Z" fill="#701621"/>
<path d="M82.1792 43.3161H78.0642C77.8084 43.3161 77.5619 43.3391 77.3177 43.3714C73.1197 35.328 64.7007 29.8374 55.0006 29.8374C45.266 29.8374 36.824 35.3671 32.6398 43.4543C32.2366 43.5995 31.8772 43.8576 31.6076 44.2009C31.0339 43.6387 30.2229 43.3161 29.2552 43.3161H27.8243C26.5433 43.3161 25.5065 44.3529 25.5065 45.634V46.8713C25.5065 47.6362 25.8751 48.3136 26.4465 48.7352V53.1797C26.4465 54.4608 27.4833 55.4976 28.7644 55.4976H29.8496C29.8611 56.0967 29.8934 56.6911 29.9464 57.281C29.2367 57.6773 28.7575 58.4353 28.7575 59.3039V60.5412C28.7575 61.3061 29.1261 61.9835 29.6975 62.4052V66.8497C29.6975 68.1307 30.7344 69.1676 32.0154 69.1676H33.4624C33.6997 69.1676 33.9255 69.1307 34.1421 69.0662C38.6626 75.7594 46.3213 80.1579 55.0052 80.1579C63.6639 80.1579 71.2995 75.7848 75.8269 69.1261C76.0136 69.0708 76.1956 69.0063 76.373 68.9279C76.7693 69.0823 77.214 69.1652 77.6955 69.1652H79.0687C80.3498 69.1652 81.3866 68.1284 81.3866 66.8474V65.6101C81.3866 64.8452 81.018 64.1678 80.4466 63.7461V62.0757C80.4466 60.9882 80.2208 60.0504 79.8014 59.2763C80.0134 58.0436 80.1332 56.7833 80.1586 55.4953H81.2438C82.5248 55.4953 83.5616 54.4585 83.5616 53.1774V48.7329C84.1307 48.3113 84.5017 47.6339 84.5017 46.8689V45.6317C84.4971 44.3552 83.4603 43.3161 82.1792 43.3161Z" fill="white"/>
<path d="M31.4853 50.1752L32.8263 52.5138C33.1465 53.1083 33.4046 53.2534 34.1419 53.2534H35.1856C35.2248 53.2534 35.257 53.2212 35.257 53.182V51.9447C35.257 51.9056 35.2248 51.8733 35.1856 51.8733H34.7386C34.3884 51.8733 34.2778 51.8249 34.1442 51.6106L33.0405 49.7605C32.847 49.4425 32.6488 49.2858 32.5359 49.2144C32.6419 49.143 32.8239 48.9909 33.0382 48.6753L35.1119 45.6777C35.128 45.6547 35.128 45.627 35.1165 45.6017C35.105 45.5786 35.0796 45.5625 35.052 45.5625H33.4276C33.4046 45.5625 33.3815 45.574 33.3677 45.5948L31.5636 48.2214C31.4231 48.4333 31.1904 48.5324 30.8332 48.5324H30.2803V46.5924C30.2803 45.8828 29.9646 45.5648 29.2527 45.5648H27.8219C27.7827 45.5648 27.7504 45.5971 27.7504 45.6362V46.8735C27.7504 46.9127 27.7827 46.9449 27.8219 46.9449H28.4324C28.6098 46.9449 28.6882 47.0233 28.6882 47.2007V53.182C28.6882 53.2212 28.7204 53.2534 28.7596 53.2534H30.2065C30.2457 53.2534 30.278 53.2212 30.278 53.182V49.9149H30.8171C31.1558 49.9125 31.3517 49.954 31.4853 50.1752Z" fill="#701621"/>
<path d="M35.768 46.945H36.3786C36.556 46.945 36.6343 47.0233 36.6343 47.2007V56.1635C36.6343 56.2026 36.6666 56.2349 36.7057 56.2349H38.1527C38.1918 56.2349 38.2241 56.2026 38.2241 56.1635V52.8088C38.2241 52.6337 38.2172 52.4839 38.2126 52.371C38.4752 52.7189 39.1757 53.4332 40.4636 53.4332C42.5258 53.4332 43.9658 51.7789 43.9658 49.408C43.9658 47.0003 42.5995 45.3828 40.5673 45.3828C39.1112 45.3828 38.3808 46.1846 38.1158 46.5671C38.1181 46.5141 38.1181 46.4565 38.1181 46.3943C38.1181 45.8413 37.7817 45.5602 37.1205 45.5602H35.7634C35.7242 45.5602 35.692 45.5925 35.692 45.6317V46.8689C35.6966 46.9127 35.7288 46.945 35.768 46.945ZM38.1826 49.4379C38.1826 47.491 39.2701 46.7952 40.2885 46.7952C41.5212 46.7952 42.3484 47.8505 42.3484 49.4218C42.3484 50.9678 41.4889 52.0484 40.2586 52.0484C38.8946 52.0507 38.1826 50.7351 38.1826 49.4379Z" fill="#701621"/>
<path d="M46.044 56.3846C47.1661 56.3846 48.0831 55.721 48.5578 54.5644L51.5254 47.1984C51.6106 47.0025 51.7074 46.9426 51.9355 46.9426H52.129C52.1682 46.9426 52.2005 46.9104 52.2005 46.8712V45.6339C52.2005 45.5948 52.1682 45.5625 52.129 45.5625H51.265C50.6037 45.5625 50.3227 45.7583 50.1084 46.3712L48.5278 50.6222C48.4495 50.848 48.3757 51.1222 48.3273 51.3134C48.279 51.1245 48.2006 50.8503 48.1108 50.6199L46.4104 46.3689C46.1592 45.7445 45.9012 45.5625 45.2537 45.5625H44.4035C44.3644 45.5625 44.3321 45.5948 44.3321 45.6339V46.8712C44.3321 46.9104 44.3644 46.9426 44.4035 46.9426H44.5971C44.8206 46.9426 44.9058 46.9979 44.9934 47.1961L47.5624 53.1474L47.2306 53.94C46.9472 54.6128 46.4979 54.9838 45.9703 54.9838C45.3943 54.9838 44.9634 54.5391 44.9358 54.4976C44.9266 54.4699 44.9035 54.4515 44.8736 54.4492C44.8436 54.4469 44.8183 54.4607 44.8044 54.4861L44.2077 55.5298C44.1916 55.5575 44.1962 55.5897 44.2169 55.6128C44.2423 55.6473 44.9058 56.3846 46.044 56.3846Z" fill="#701621"/>
<path d="M57.3369 47.7076C57.3369 47.7467 57.3692 47.779 57.4083 47.779H58.6157C58.6548 47.779 58.6871 47.7467 58.6871 47.7076V46.5602C58.6871 45.8528 58.3853 45.5625 57.6457 45.5625H52.6505C52.6113 45.5625 52.579 45.5948 52.579 45.6339V46.8712C52.579 46.9104 52.6113 46.9426 52.6505 46.9426H53.5168V53.1774C53.5168 53.2166 53.549 53.2488 53.5882 53.2488H55.0352C55.0743 53.2488 55.1066 53.2166 55.1066 53.1774V46.9426H57.0766C57.2471 46.9426 57.3323 47.0279 57.3323 47.1984V47.7076H57.3369Z" fill="#701621"/>
<path d="M66.5483 53.1819V51.9446C66.5483 51.9054 66.5161 51.8732 66.4769 51.8732H65.8663C65.6889 51.8732 65.6106 51.7949 65.6106 51.6174V46.5923C65.6106 45.8827 65.2949 45.5647 64.583 45.5647H59.7076C59.6684 45.5647 59.6362 45.597 59.6362 45.6361V46.8734C59.6362 46.9126 59.6684 46.9448 59.7076 46.9448H60.5739V47.454C60.5739 49.0807 60.2145 51.8409 58.8689 51.8709C58.8297 51.8709 58.7975 51.9031 58.7975 51.9423V53.2257C58.7975 53.2717 58.8413 53.2971 58.885 53.2971C59.5832 53.2971 60.1822 53.0529 60.6661 52.5736C61.9632 51.2834 62.1038 48.5738 62.1038 47.4678V46.9448H63.7604C63.9378 46.9448 64.0162 47.0232 64.0162 47.2006V52.2257C64.0162 52.9354 64.3364 53.2533 65.0576 53.2533H66.4746C66.5161 53.2533 66.5483 53.2211 66.5483 53.1819Z" fill="#701621"/>
<path d="M72.1311 52.3157C72.1311 52.9378 72.4675 53.2534 73.1287 53.2534H74.5019C74.5411 53.2534 74.5734 53.2212 74.5734 53.182V51.9447C74.5734 51.9056 74.5411 51.8733 74.5019 51.8733H73.8914C73.714 51.8733 73.6356 51.795 73.6356 51.6176V48.408C73.6356 46.3436 72.6126 45.3828 70.4169 45.3828C69.4307 45.3828 67.7649 45.6939 67.7649 46.8574V47.6177C67.7649 47.6569 67.7972 47.6892 67.8363 47.6892H69.2072C69.2464 47.6892 69.2787 47.6569 69.2787 47.6177V47.1846C69.2787 46.7814 70.0413 46.6754 70.4445 46.6754C71.5942 46.6754 72.0412 47.1523 72.0412 48.3781V48.4103H71.7855C68.7096 48.4103 67.1497 49.3227 67.1497 51.1222C67.1497 52.6383 68.4607 53.4309 69.7579 53.4309C70.7003 53.4309 71.327 53.0207 71.6864 52.6774C71.8892 52.4839 72.0366 52.2834 72.1334 52.1291C72.1311 52.1867 72.1311 52.2489 72.1311 52.3157ZM72.0412 49.5992V49.8089C72.0412 50.9333 71.2555 52.1383 70.0851 52.1383C69.1612 52.1383 68.7418 51.5415 68.7418 50.9886C68.7418 50.0531 69.7187 49.5992 71.7256 49.5992H72.0412Z" fill="#701621"/>
<path d="M82.1793 45.5625H78.0643C76.5298 45.5625 75.4561 46.5371 75.4561 47.9311C75.4561 49.0048 76.0529 49.802 77.0597 50.0877C76.9491 50.1752 76.8524 50.2812 76.751 50.424L75.9008 51.6037C75.7556 51.8134 75.6197 51.871 75.2603 51.871H75.0206C74.9815 51.871 74.9492 51.9032 74.9492 51.9424V53.1797C74.9492 53.2189 74.9815 53.2511 75.0206 53.2511H75.7072C76.4607 53.2511 76.6427 53.1543 77.1081 52.5207L78.2117 50.9839C78.4813 50.5853 78.5689 50.5093 78.9559 50.5093H79.7209V53.1797C79.7209 53.2189 79.7532 53.2511 79.7923 53.2511H81.2393C81.2784 53.2511 81.3107 53.2189 81.3107 53.1797V46.9449H82.177C82.2162 46.9449 82.2484 46.9127 82.2484 46.8735V45.6362C82.253 45.5948 82.2208 45.5625 82.1793 45.5625ZM79.7209 46.7076V49.3227H78.5251C77.6265 49.3227 77.0459 48.8066 77.0459 48.0071C77.0459 47.1938 77.5827 46.7076 78.479 46.7076H79.7209Z" fill="#701621"/>
<path d="M39.7825 65.5408H39.1696C38.9922 65.5408 38.9139 65.4625 38.9139 65.2851V62.0202C38.9139 60.0249 38.0452 59.0549 36.2619 59.0549C34.8657 59.0549 33.9302 59.8222 33.4832 60.571C33.4855 60.5249 33.4855 60.4765 33.4855 60.4258V60.1424C33.4855 59.5411 33.1399 59.2346 32.4579 59.2346H31.0709C31.0317 59.2346 30.9995 59.2669 30.9995 59.3061V60.5433C30.9995 60.5825 31.0317 60.6148 31.0709 60.6148H31.6815C31.8589 60.6148 31.9372 60.6931 31.9372 60.8705V66.8518C31.9372 66.891 31.9695 66.9233 32.0086 66.9233H33.4556C33.4947 66.9233 33.527 66.891 33.527 66.8518V63.3174C33.527 62.8889 33.5662 62.5847 33.6583 62.3244C33.9717 61.2323 34.8818 60.5272 35.9739 60.5272C37.0891 60.5272 37.3172 61.2553 37.3172 62.3497V65.898C37.3172 66.6076 37.6328 66.9256 38.3448 66.9256H39.7756C39.8148 66.9256 39.847 66.8933 39.847 66.8541V65.6169C39.8539 65.5731 39.8217 65.5408 39.7825 65.5408Z" fill="#701621"/>
<path d="M44.5833 59.0549C42.2286 59.0549 40.4545 60.7784 40.4545 63.064C40.4545 65.3657 42.2286 67.103 44.5833 67.103C46.945 67.103 48.726 65.3657 48.726 63.064C48.726 60.7784 46.945 59.0549 44.5833 59.0549ZM47.1063 63.064C47.1063 64.5708 46.0211 65.7067 44.5833 65.7067C43.1686 65.7067 42.0604 64.5455 42.0604 63.064C42.0604 61.5986 43.1686 60.4512 44.5833 60.4512C46.0211 60.4512 47.1063 61.5756 47.1063 63.064Z" fill="#701621"/>
<path d="M56.7815 65.5409H56.1709C55.9935 65.5409 55.9152 65.4626 55.9152 65.2852V60.26C55.9152 59.5504 55.5995 59.2324 54.8876 59.2324H50.0122C49.973 59.2324 49.9408 59.2647 49.9408 59.3039V60.5411C49.9408 60.5803 49.973 60.6126 50.0122 60.6126H50.8785V61.1217C50.8785 62.7484 50.5191 65.5087 49.1735 65.5386C49.1344 65.5386 49.1021 65.5709 49.1021 65.61V66.8934C49.1021 66.9395 49.1436 66.9648 49.1897 66.9648C49.8878 66.9648 50.4868 66.7206 50.9707 66.2413C52.2679 64.9511 52.4084 62.2415 52.4084 61.1356V60.6126H54.065C54.2425 60.6126 54.3208 60.6909 54.3208 60.8683V65.8934C54.3208 66.6031 54.6411 66.921 55.3622 66.921H56.7792C56.8184 66.921 56.8506 66.8888 56.8506 66.8496V65.6123C56.8553 65.5732 56.823 65.5409 56.7815 65.5409Z" fill="#701621"/>
<path d="M61.7189 61.1864C60.9447 61.1864 60.2674 61.4444 59.7927 61.9145C59.8019 61.7601 59.8088 61.5643 59.8088 61.3799V60.2325C59.8088 59.5436 59.4932 59.2349 58.7812 59.2349H57.3504C57.3112 59.2349 57.279 59.2671 57.279 59.3063V60.5436C57.279 60.5827 57.3112 60.615 57.3504 60.615H57.9909C58.1499 60.615 58.2167 60.691 58.2167 60.8707V64.1356C58.2167 65.9926 59.3642 67.1009 61.2857 67.1009C63.2119 67.1009 64.5045 65.9097 64.5045 64.1356C64.5045 62.3453 63.4124 61.1864 61.7189 61.1864ZM62.8986 64.1817C62.8986 65.1793 62.2765 65.8244 61.3157 65.8244C60.3987 65.8244 59.8065 65.1747 59.8065 64.1678C59.8065 63.161 60.4171 62.5112 61.3595 62.5112C62.0622 62.5089 62.8986 62.7992 62.8986 64.1817Z" fill="#701621"/>
<path d="M69.6492 62.8774C70.2897 62.5824 70.6653 61.9557 70.6653 61.17C70.6653 59.8452 69.6469 59.0549 67.9373 59.0549C66.7277 59.0549 65.3153 59.4558 65.3153 60.5894V61.2899C65.3153 61.329 65.3475 61.3613 65.3867 61.3613H66.594C66.6332 61.3613 66.6654 61.329 66.6654 61.2899V60.9466C66.6654 60.4627 67.3544 60.2876 67.8152 60.2876C68.1884 60.2876 69.0547 60.389 69.0547 61.3198C69.0547 62.0133 68.5571 62.3958 67.6516 62.3958H66.8912C66.8521 62.3958 66.8198 62.4281 66.8198 62.4672V63.4672C66.8198 63.5064 66.8521 63.5386 66.8912 63.5386H67.8451C68.5133 63.5386 69.3082 63.7229 69.3082 64.6008C69.3082 65.4717 68.5363 65.7805 67.8152 65.7805C66.8313 65.7805 66.1263 65.1791 65.8682 64.921C65.8544 64.9049 65.8337 64.8957 65.8106 64.9003C65.7899 64.9026 65.7692 64.9141 65.7576 64.9303L65.071 65.8841C65.0503 65.9141 65.0549 65.9533 65.0803 65.9786C65.3775 66.2574 66.283 67.1007 67.9027 67.1007C69.3934 67.1007 70.898 66.3542 70.898 64.686C70.9026 63.8105 70.4372 63.1446 69.6492 62.8774Z" fill="#701621"/>
<path d="M79.0633 65.5409H78.4528C78.2754 65.5409 78.197 65.4626 78.197 65.2852V62.078C78.197 60.0135 77.174 59.0527 74.9783 59.0527C73.9921 59.0527 72.3263 59.3638 72.3263 60.5273V61.2877C72.3263 61.3268 72.3586 61.3591 72.3977 61.3591H73.7686C73.8078 61.3591 73.8401 61.3268 73.8401 61.2877V60.8545C73.8401 60.4513 74.6027 60.3453 75.0059 60.3453C76.1556 60.3453 76.6026 60.8222 76.6026 62.048V62.0803H76.3469C73.271 62.0803 71.7111 62.9927 71.7111 64.7921C71.7111 66.3082 73.0221 67.1008 74.3193 67.1008C75.2617 67.1008 75.8884 66.6907 76.2478 66.3474C76.4506 66.1538 76.598 65.9534 76.6948 65.799C76.6925 65.8543 76.6925 65.9165 76.6925 65.9833C76.6925 66.6054 77.0289 66.9211 77.6901 66.9211H79.0633C79.1025 66.9211 79.1348 66.8888 79.1348 66.8497V65.6124C79.1348 65.5732 79.1025 65.5409 79.0633 65.5409ZM76.6026 63.2715V63.4811C76.6026 64.6055 75.8169 65.8105 74.6465 65.8105C73.7226 65.8105 73.3032 65.2138 73.3032 64.6608C73.3032 63.7254 74.2801 63.2715 76.287 63.2715H76.6026Z" fill="#701621"/>
</svg>
