<svg width="1522" height="9" viewBox="0 0 1522 9" fill="none" xmlns="http://www.w3.org/2000/svg">
<path d="M1521 4.5V4.5C1516.28 9.20075 1508.64 9.20075 1503.92 4.5V4.5C1499.2 -0.200753 1491.57 -0.200753 1486.84 4.5V4.5C1482.12 9.20075 1474.49 9.20075 1469.76 4.5V4.5C1465.04 -0.200753 1457.41 -0.200753 1452.69 4.5V4.5C1447.96 9.20075 1440.33 9.20075 1435.61 4.5V4.5C1430.88 -0.200753 1423.25 -0.200753 1418.53 4.5V4.5C1413.81 9.20075 1406.17 9.20075 1401.45 4.5V4.5C1396.73 -0.200753 1389.09 -0.200753 1384.37 4.5V4.5C1379.65 9.20075 1372.01 9.20075 1367.29 4.5V4.5C1362.57 -0.200753 1354.94 -0.200753 1350.21 4.5V4.5C1345.49 9.20075 1337.86 9.20075 1333.13 4.5V4.5C1328.41 -0.200753 1320.78 -0.200753 1316.06 4.5V4.5C1311.33 9.20075 1303.7 9.20075 1298.98 4.5V4.5C1294.25 -0.200753 1286.62 -0.200753 1281.9 4.5V4.5C1277.18 9.20075 1269.54 9.20075 1264.82 4.5V4.5C1260.1 -0.200753 1252.46 -0.200753 1247.74 4.5V4.5C1243.02 9.20075 1235.39 9.20075 1230.66 4.5V4.5C1225.94 -0.200753 1218.31 -0.200753 1213.58 4.5V4.5C1208.86 9.20075 1201.23 9.20075 1196.51 4.5V4.5C1191.78 -0.200753 1184.15 -0.200753 1179.43 4.5V4.5C1174.7 9.20075 1167.07 9.20075 1162.35 4.5V4.5C1157.63 -0.200753 1149.99 -0.200753 1145.27 4.5V4.5C1140.55 9.20075 1132.91 9.20075 1128.19 4.5V4.5C1123.47 -0.200753 1115.83 -0.200753 1111.11 4.5V4.5C1106.39 9.20075 1098.76 9.20075 1094.03 4.5V4.5C1089.31 -0.200753 1081.68 -0.200753 1076.95 4.5V4.5C1072.23 9.20075 1064.6 9.20075 1059.88 4.5V4.5C1055.15 -0.200753 1047.52 -0.200753 1042.8 4.5V4.5C1038.08 9.20075 1030.44 9.20075 1025.72 4.5V4.5C1021 -0.200753 1013.36 -0.200753 1008.64 4.5V4.5C1003.92 9.20075 996.284 9.20075 991.562 4.5V4.5C986.839 -0.200753 979.206 -0.200753 974.483 4.5V4.5C969.761 9.20075 962.127 9.20075 957.404 4.5V4.5C952.682 -0.200753 945.048 -0.200753 940.326 4.5V4.5C935.603 9.20075 927.97 9.20075 923.247 4.5V4.5C918.525 -0.200753 910.891 -0.200753 906.168 4.5V4.5C901.446 9.20075 893.812 9.20075 889.09 4.5V4.5C884.367 -0.200753 876.734 -0.200753 872.011 4.5V4.5C867.289 9.20075 859.655 9.20075 854.933 4.5V4.5C850.21 -0.200753 842.576 -0.200753 837.854 4.5V4.5C833.131 9.20075 825.498 9.20075 820.775 4.5V4.5C816.053 -0.200753 808.419 -0.200753 803.697 4.5V4.5C798.974 9.20075 791.34 9.20075 786.618 4.5V4.5C781.895 -0.200753 774.262 -0.200753 769.539 4.5V4.5C764.817 9.20075 757.183 9.20075 752.461 4.5V4.5C747.738 -0.200753 740.104 -0.200753 735.382 4.5V4.5C730.659 9.20075 723.026 9.20075 718.303 4.5V4.5C713.581 -0.200753 705.947 -0.200753 701.225 4.5V4.5C696.502 9.20075 688.869 9.20075 684.146 4.5V4.5C679.424 -0.200753 671.79 -0.200753 667.067 4.5V4.5C662.345 9.20075 654.711 9.20075 649.989 4.5V4.5C645.266 -0.200753 637.633 -0.200753 632.91 4.5V4.5C628.188 9.20075 620.554 9.20075 615.831 4.5V4.5C611.109 -0.200753 603.475 -0.200753 598.753 4.5V4.5C594.03 9.20075 586.397 9.20075 581.674 4.5V4.5C576.952 -0.200753 569.318 -0.200753 564.595 4.5V4.5C559.873 9.20075 552.239 9.20075 547.517 4.5V4.5C542.794 -0.200753 535.161 -0.200753 530.438 4.5V4.5C525.716 9.20075 518.082 9.20075 513.36 4.5V4.5C508.637 -0.200753 501.003 -0.200753 496.281 4.5V4.5C491.558 9.20075 483.925 9.20075 479.202 4.5V4.5C474.48 -0.200753 466.846 -0.200753 462.124 4.5V4.5C457.401 9.20075 449.767 9.20075 445.045 4.5V4.5C440.322 -0.200753 432.689 -0.200753 427.966 4.5V4.5C423.244 9.20075 415.61 9.20075 410.888 4.5V4.5C406.165 -0.200753 398.531 -0.200753 393.809 4.5V4.5C389.086 9.20075 381.453 9.20075 376.73 4.5V4.5C372.008 -0.200753 364.374 -0.200753 359.652 4.5V4.5C354.929 9.20075 347.296 9.20075 342.573 4.5V4.5C337.851 -0.200753 330.217 -0.200753 325.494 4.5V4.5C320.772 9.20075 313.138 9.20075 308.416 4.5V4.5C303.693 -0.200753 296.06 -0.200753 291.337 4.5V4.5C286.615 9.20075 278.981 9.20075 274.258 4.5V4.5C269.536 -0.200753 261.902 -0.200753 257.18 4.5V4.5C252.457 9.20075 244.824 9.20075 240.101 4.5V4.5C235.379 -0.200753 227.745 -0.200753 223.022 4.5V4.5C218.3 9.20075 210.666 9.20075 205.944 4.5V4.5C201.221 -0.200753 193.588 -0.200753 188.865 4.5V4.5C184.143 9.20075 176.509 9.20075 171.787 4.5V4.5C167.064 -0.200753 159.43 -0.200753 154.708 4.5V4.5C149.985 9.20075 142.352 9.20075 137.629 4.5V4.5C132.907 -0.200753 125.273 -0.200753 120.551 4.5V4.5C115.828 9.20075 108.194 9.20075 103.472 4.5V4.5C98.7494 -0.200753 91.1158 -0.200753 86.3933 4.5V4.5C81.6708 9.20075 74.0371 9.20075 69.3146 4.5V4.5C64.5921 -0.200753 56.9585 -0.200753 52.236 4.5V4.5C47.5135 9.20075 39.8798 9.20075 35.1573 4.5V4.5C30.4348 -0.200753 22.8012 -0.200753 18.0787 4.5V4.5C13.3561 9.20075 5.7225 9.20075 1 4.5V4.5" stroke="#CCCCBD"/>
</svg>
