<svg width="45" height="45" viewBox="0 0 45 45" fill="none" xmlns="http://www.w3.org/2000/svg">
<g clip-path="url(#clip0)">
<path d="M36.5451 38.0508L27.4196 23.7844V15.4688H23.8187V12.5904H28.0999C31.4915 12.5904 34.2508 9.83109 34.2508 6.43957V3.04998H27.3329C25.9075 3.04998 24.5948 3.53874 23.5507 4.3556C22.7806 1.83709 20.435 0 17.6677 0H10.7498V3.38941C10.7498 6.78111 13.5091 9.54035 16.9007 9.54035H21.1819V15.4688H17.581V23.7843L8.45556 38.0508C7.55266 39.4625 7.49395 41.1828 8.29859 42.6526C9.10322 44.1225 10.584 45 12.2597 45H32.741C34.4166 45 35.8974 44.1225 36.702 42.6527C37.5067 41.1827 37.448 39.4625 36.5451 38.0508ZM13.3865 3.38941V2.63672H17.6677C19.6055 2.63672 21.1819 4.21321 21.1819 6.15094V6.90363H16.9007C14.9629 6.90372 13.3865 5.32723 13.3865 3.38941ZM23.8187 9.20101C23.8187 7.26319 25.3952 5.68679 27.3329 5.68679H31.6141V6.43957C31.6141 8.37729 30.0376 9.9537 28.0999 9.9537H23.8187V9.20101ZM20.2177 24.5555V18.1055H24.7829V24.5555L27.5721 28.916H17.4285L20.2177 24.5555ZM34.3892 41.3866C34.0543 41.9982 33.4382 42.3633 32.741 42.3633H12.2597C11.5624 42.3633 10.9463 41.9982 10.6114 41.3866C10.2766 40.7749 10.301 40.0591 10.6767 39.4717L15.742 31.5527H29.2587L34.3239 39.4716C34.6996 40.059 34.724 40.7749 34.3892 41.3866Z" fill="#38434E"/>
<path d="M18 35.5L21.7059 39L27 34" stroke="#C71F24" stroke-width="2.5"/>
</g>
<defs>
<clipPath id="clip0">
<rect width="45" height="45" fill="white"/>
</clipPath>
</defs>
</svg>
