<svg width="57" height="45" viewBox="0 0 57 45" fill="none" xmlns="http://www.w3.org/2000/svg">
<path d="M28.5 2.54574L31.3786 7.65291L31.6595 8.15129L32.2203 8.26444L37.9671 9.42396L33.9994 13.7399L33.6122 14.1611L33.6779 14.7294L34.351 20.5532L29.0202 18.1134L28.5 17.8753L27.9798 18.1134L22.649 20.5532L23.3221 14.7294L23.3878 14.1611L23.0006 13.7399L19.0329 9.42396L24.7797 8.26444L25.3405 8.15129L25.6214 7.65291L28.5 2.54574Z" stroke="#38434E" stroke-width="2.5"/>
<path d="M8 11.5457L9.45029 14.1188L9.7312 14.6172L10.292 14.7304L13.1873 15.3145L11.1883 17.489L10.8011 17.9101L10.8668 18.4785L11.2059 21.4126L8.5202 20.1834L8 19.9453L7.4798 20.1834L4.79407 21.4126L5.13317 18.4785L5.19885 17.9101L4.81167 17.489L2.81269 15.3145L5.708 14.7304L6.2688 14.6172L6.54971 14.1188L8 11.5457Z" stroke="#38434E" stroke-width="2.5"/>
<path d="M49 11.5457L50.4503 14.1188L50.7312 14.6172L51.292 14.7304L54.1873 15.3145L52.1883 17.489L51.8011 17.9101L51.8668 18.4785L52.2059 21.4126L49.5202 20.1834L49 19.9453L48.4798 20.1834L45.7941 21.4126L46.1332 18.4785L46.1989 17.9101L45.8117 17.489L43.8127 15.3145L46.708 14.7304L47.2688 14.6172L47.5497 14.1188L49 11.5457Z" stroke="#38434E" stroke-width="2.5"/>
<path d="M10.0028 39.983H18.5708V37.807H13.5898L16.3268 35.41C16.8142 34.985 17.225 34.6053 17.5593 34.271C17.8937 33.931 18.1458 33.5627 18.3158 33.166C18.4858 32.7637 18.5708 32.2593 18.5708 31.653C18.5708 30.8313 18.3895 30.1088 18.0268 29.4855C17.6642 28.8622 17.1655 28.3777 16.5308 28.032C15.9018 27.6807 15.1878 27.505 14.3888 27.505C13.5162 27.505 12.7512 27.6722 12.0938 28.0065C11.4365 28.3408 10.9237 28.814 10.5553 29.426C10.187 30.038 10.0028 30.7633 10.0028 31.602H12.3828C12.3715 31.262 12.448 30.9475 12.6123 30.6585C12.7767 30.3638 13.0062 30.1287 13.3008 29.953C13.6012 29.7717 13.9468 29.681 14.3378 29.681C14.8988 29.681 15.3465 29.8652 15.6808 30.2335C16.0208 30.5962 16.1908 31.058 16.1908 31.619C16.1908 31.8797 16.1115 32.1602 15.9528 32.4605C15.7942 32.7608 15.5222 33.081 15.1368 33.421L10.0028 37.977V39.983ZM25.1416 40.255C26.0483 40.255 26.8416 40.0652 27.5216 39.6855C28.2016 39.3058 28.7314 38.776 29.1111 38.096C29.4908 37.416 29.6806 36.6227 29.6806 35.716V32.044C29.6806 31.1373 29.4908 30.344 29.1111 29.664C28.7314 28.984 28.2016 28.4542 27.5216 28.0745C26.8416 27.6948 26.0483 27.505 25.1416 27.505C24.2349 27.505 23.4416 27.6948 22.7616 28.0745C22.0816 28.4542 21.5518 28.984 21.1721 29.664C20.7924 30.344 20.6026 31.1373 20.6026 32.044V35.716C20.6026 36.6227 20.7924 37.416 21.1721 38.096C21.5518 38.776 22.0816 39.3058 22.7616 39.6855C23.4416 40.0652 24.2349 40.255 25.1416 40.255ZM25.1416 38.062C24.7336 38.062 24.3653 37.9657 24.0366 37.773C23.7079 37.5803 23.4473 37.3197 23.2546 36.991C23.0619 36.6623 22.9656 36.294 22.9656 35.886V31.857C22.9656 31.449 23.0619 31.0807 23.2546 30.752C23.4473 30.4233 23.7079 30.1627 24.0366 29.97C24.3653 29.7773 24.7336 29.681 25.1416 29.681C25.5496 29.681 25.9179 29.7773 26.2466 29.97C26.5753 30.1627 26.8359 30.4233 27.0286 30.752C27.2213 31.0807 27.3176 31.449 27.3176 31.857V35.886C27.3176 36.294 27.2213 36.6623 27.0286 36.991C26.8359 37.3197 26.5753 37.5803 26.2466 37.773C25.9179 37.9657 25.5496 38.062 25.1416 38.062ZM31.7177 39.983H40.2857V37.807H35.3047L38.0417 35.41C38.529 34.985 38.9398 34.6053 39.2742 34.271C39.6085 33.931 39.8607 33.5627 40.0307 33.166C40.2007 32.7637 40.2857 32.2593 40.2857 31.653C40.2857 30.8313 40.1043 30.1088 39.7417 29.4855C39.379 28.8622 38.8803 28.3777 38.2457 28.032C37.6167 27.6807 36.9027 27.505 36.1037 27.505C35.231 27.505 34.466 27.6722 33.8087 28.0065C33.1513 28.3408 32.6385 28.814 32.2702 29.426C31.9018 30.038 31.7177 30.7633 31.7177 31.602H34.0977C34.0863 31.262 34.1628 30.9475 34.3272 30.6585C34.4915 30.3638 34.721 30.1287 35.0157 29.953C35.316 29.7717 35.6617 29.681 36.0527 29.681C36.6137 29.681 37.0613 29.8652 37.3957 30.2335C37.7357 30.5962 37.9057 31.058 37.9057 31.619C37.9057 31.8797 37.8263 32.1602 37.6677 32.4605C37.509 32.7608 37.237 33.081 36.8517 33.421L31.7177 37.977V39.983ZM44.4424 40H46.8054V27.76H44.4424L42.1474 29.137V31.687L44.4424 30.276V40Z" fill="#C71F24"/>
<path d="M10.0028 39.983H8.00283V41.983H10.0028V39.983ZM18.5708 39.983V41.983H20.5708V39.983H18.5708ZM18.5708 37.807H20.5708V35.807H18.5708V37.807ZM13.5898 37.807L12.2722 36.3024L8.27048 39.807H13.5898V37.807ZM16.3268 35.41L15.0123 33.9027L15.0092 33.9054L16.3268 35.41ZM17.5593 34.271L18.9735 35.6852L18.9795 35.6793L18.9854 35.6733L17.5593 34.271ZM18.3158 33.166L20.1541 33.9538L20.1581 33.9444L18.3158 33.166ZM16.5308 28.032L15.5555 29.7781L15.5649 29.7833L15.5742 29.7884L16.5308 28.032ZM12.0938 28.0065L13.0005 29.7892L13.0005 29.7892L12.0938 28.0065ZM10.5553 29.426L12.2689 30.4573L10.5553 29.426ZM10.0028 31.602H8.00283V33.602H10.0028V31.602ZM12.3828 31.602V33.602H14.4506L14.3817 31.5354L12.3828 31.602ZM12.6123 30.6585L14.3509 31.6471L14.355 31.6399L14.3591 31.6326L12.6123 30.6585ZM13.3008 29.953L14.325 31.6709L14.3346 31.6651L13.3008 29.953ZM15.6808 30.2335L14.1999 31.5777L14.2107 31.5896L14.2218 31.6014L15.6808 30.2335ZM15.9528 32.4605L14.1844 31.5263L14.1844 31.5263L15.9528 32.4605ZM15.1368 33.421L13.8136 31.9213L13.8093 31.9251L15.1368 33.421ZM10.0028 37.977L8.67533 36.4811L8.00283 37.0779V37.977H10.0028ZM10.0028 41.983H18.5708V37.983H10.0028V41.983ZM20.5708 39.983V37.807H16.5708V39.983H20.5708ZM18.5708 35.807H13.5898V39.807H18.5708V35.807ZM14.9075 39.3116L17.6445 36.9146L15.0092 33.9054L12.2722 36.3024L14.9075 39.3116ZM17.6414 36.9173C18.1515 36.4724 18.5978 36.0609 18.9735 35.6852L16.1451 32.8568C15.8522 33.1497 15.4768 33.4976 15.0123 33.9027L17.6414 36.9173ZM18.9854 35.6733C19.4759 35.1745 19.8763 34.602 20.1541 33.9538L16.4775 32.3782C16.4153 32.5233 16.3115 32.6875 16.1333 32.8687L18.9854 35.6733ZM20.1581 33.9444C20.4642 33.22 20.5708 32.4299 20.5708 31.653H16.5708C16.5708 32.0888 16.5074 32.3073 16.4735 32.3876L20.1581 33.9444ZM20.5708 31.653C20.5708 30.5281 20.3195 29.449 19.7555 28.4797L16.2981 30.4913C16.4595 30.7686 16.5708 31.1346 16.5708 31.653H20.5708ZM19.7555 28.4797C19.2085 27.5396 18.4425 26.7958 17.4874 26.2756L15.5742 29.7884C15.8885 29.9595 16.1198 30.1847 16.2981 30.4913L19.7555 28.4797ZM17.5061 26.2859C16.5475 25.7505 15.4912 25.505 14.3888 25.505V29.505C14.8844 29.505 15.2562 29.6109 15.5555 29.7781L17.5061 26.2859ZM14.3888 25.505C13.2585 25.505 12.1725 25.7227 11.1871 26.2238L13.0005 29.7892C13.3299 29.6217 13.7738 29.505 14.3888 29.505V25.505ZM11.1871 26.2238C10.2072 26.7223 9.40983 27.4508 8.84175 28.3947L12.2689 30.4573C12.4375 30.1772 12.6658 29.9594 13.0005 29.7892L11.1871 26.2238ZM8.84175 28.3947C8.25555 29.3687 8.00283 30.4639 8.00283 31.602H12.0028C12.0028 31.0627 12.1184 30.7073 12.2689 30.4573L8.84175 28.3947ZM10.0028 33.602H12.3828V29.602H10.0028V33.602ZM14.3817 31.5354C14.3818 31.5376 14.3818 31.5559 14.375 31.5838C14.3682 31.6121 14.3581 31.6344 14.3509 31.6471L10.8738 29.6699C10.5225 30.2876 10.3606 30.9686 10.3839 31.6686L14.3817 31.5354ZM14.3591 31.6326C14.3587 31.6333 14.3568 31.6366 14.3529 31.6418C14.3491 31.6469 14.3444 31.6525 14.3391 31.658C14.3273 31.67 14.3202 31.6738 14.325 31.6709L12.2767 28.2351C11.6853 28.5877 11.2042 29.0772 10.8656 29.6844L14.3591 31.6326ZM14.3346 31.6651C14.3271 31.6696 14.319 31.6738 14.3107 31.6773C14.3025 31.6807 14.2962 31.6827 14.2928 31.6836C14.2895 31.6844 14.2907 31.6839 14.2974 31.683C14.3042 31.6822 14.3174 31.681 14.3378 31.681V27.681C13.6253 27.681 12.9141 27.8502 12.2671 28.2409L14.3346 31.6651ZM14.3378 31.681C14.3983 31.681 14.3862 31.6904 14.3334 31.6687C14.3081 31.6583 14.2809 31.6437 14.2548 31.6252C14.2288 31.6069 14.2106 31.5895 14.1999 31.5777L17.1617 28.8893C16.3978 28.0476 15.383 27.681 14.3378 27.681V31.681ZM14.2218 31.6014C14.2182 31.5976 14.211 31.589 14.2031 31.5762C14.1951 31.5633 14.1896 31.5514 14.1865 31.5428C14.1834 31.5344 14.1842 31.5341 14.186 31.5448C14.1879 31.5558 14.1908 31.5797 14.1908 31.619H18.1908C18.1908 30.6204 17.8728 29.6474 17.1399 28.8656L14.2218 31.6014ZM14.1908 31.619C14.1908 31.545 14.2022 31.4968 14.2068 31.4806C14.211 31.4657 14.2087 31.4804 14.1844 31.5263L17.7212 33.3947C17.9874 32.8909 18.1908 32.289 18.1908 31.619H14.1908ZM14.1844 31.5263C14.1869 31.5216 14.1685 31.5569 14.1056 31.631C14.0435 31.7041 13.9497 31.8013 13.8136 31.9213L16.4601 34.9207C16.9432 34.4944 17.4072 33.9892 17.7212 33.3947L14.1844 31.5263ZM13.8093 31.9251L8.67533 36.4811L11.3303 39.4729L16.4643 34.9169L13.8093 31.9251ZM8.00283 37.977V39.983H12.0028V37.977H8.00283ZM27.5216 39.6855L28.4966 41.4318H28.4966L27.5216 39.6855ZM29.1111 38.096L27.3648 37.121L29.1111 38.096ZM27.5216 28.0745L28.4966 26.3282L28.4966 26.3282L27.5216 28.0745ZM22.7616 28.0745L21.7866 26.3282L21.7866 26.3282L22.7616 28.0745ZM21.1721 29.664L22.9183 30.639L21.1721 29.664ZM21.1721 38.096L22.9183 37.121L21.1721 38.096ZM22.7616 39.6855L23.7366 37.9392L22.7616 39.6855ZM24.0366 37.773L25.048 36.0476L24.0366 37.773ZM23.2546 36.991L21.5292 38.0024H21.5292L23.2546 36.991ZM24.0366 29.97L23.0252 28.2446L23.0252 28.2446L24.0366 29.97ZM26.2466 29.97L25.2352 31.6954L25.2352 31.6954L26.2466 29.97ZM27.0286 30.752L25.3032 31.7634L25.3032 31.7634L27.0286 30.752ZM27.0286 36.991L25.3032 35.9796V35.9796L27.0286 36.991ZM26.2466 37.773L25.2352 36.0476V36.0476L26.2466 37.773ZM25.1416 42.255C26.3331 42.255 27.4729 42.0033 28.4966 41.4318L26.5466 37.9392C26.2103 38.127 25.7634 38.255 25.1416 38.255V42.255ZM28.4966 41.4318C29.5002 40.8714 30.297 40.0746 30.8573 39.071L27.3648 37.121C27.1658 37.4774 26.903 37.7402 26.5466 37.9392L28.4966 41.4318ZM30.8573 39.071C31.4289 38.0473 31.6806 36.9075 31.6806 35.716H27.6806C27.6806 36.3378 27.5526 36.7847 27.3648 37.121L30.8573 39.071ZM31.6806 35.716V32.044H27.6806V35.716H31.6806ZM31.6806 32.044C31.6806 30.8525 31.4289 29.7127 30.8573 28.689L27.3648 30.639C27.5526 30.9753 27.6806 31.4222 27.6806 32.044H31.6806ZM30.8573 28.689C30.297 27.6854 29.5002 26.8886 28.4966 26.3282L26.5466 29.8207C26.903 30.0198 27.1658 30.2826 27.3648 30.639L30.8573 28.689ZM28.4966 26.3282C27.4729 25.7567 26.3331 25.505 25.1416 25.505V29.505C25.7634 29.505 26.2103 29.633 26.5466 29.8208L28.4966 26.3282ZM25.1416 25.505C23.9501 25.505 22.8103 25.7567 21.7866 26.3282L23.7366 29.8208C24.0729 29.633 24.5198 29.505 25.1416 29.505V25.505ZM21.7866 26.3282C20.783 26.8886 19.9862 27.6854 19.4258 28.689L22.9183 30.639C23.1174 30.2826 23.3802 30.0198 23.7366 29.8208L21.7866 26.3282ZM19.4258 28.689C18.8543 29.7127 18.6026 30.8525 18.6026 32.044H22.6026C22.6026 31.4222 22.7306 30.9753 22.9183 30.639L19.4258 28.689ZM18.6026 32.044V35.716H22.6026V32.044H18.6026ZM18.6026 35.716C18.6026 36.9075 18.8543 38.0473 19.4258 39.071L22.9183 37.121C22.7306 36.7847 22.6026 36.3378 22.6026 35.716H18.6026ZM19.4258 39.071C19.9862 40.0746 20.783 40.8714 21.7866 41.4318L23.7366 37.9392C23.3802 37.7402 23.1174 37.4774 22.9183 37.121L19.4258 39.071ZM21.7866 41.4318C22.8103 42.0033 23.9501 42.255 25.1416 42.255V38.255C24.5198 38.255 24.0729 38.127 23.7366 37.9392L21.7866 41.4318ZM25.1416 36.062C25.0962 36.062 25.073 36.0568 25.0654 36.0548C25.0586 36.0531 25.0544 36.0513 25.048 36.0476L23.0252 39.4984C23.6824 39.8836 24.4042 40.062 25.1416 40.062V36.062ZM25.048 36.0476C25.0145 36.0279 24.9997 36.0131 24.98 35.9796L21.5292 38.0024C21.8949 38.6262 22.4014 39.1327 23.0252 39.4984L25.048 36.0476ZM24.98 35.9796C24.9763 35.9732 24.9745 35.969 24.9728 35.9622C24.9708 35.9546 24.9656 35.9314 24.9656 35.886H20.9656C20.9656 36.6234 21.1439 37.3452 21.5292 38.0024L24.98 35.9796ZM24.9656 35.886V31.857H20.9656V35.886H24.9656ZM24.9656 31.857C24.9656 31.8116 24.9708 31.7884 24.9728 31.7808C24.9745 31.774 24.9763 31.7698 24.98 31.7634L21.5292 29.7406C21.1439 30.3978 20.9656 31.1196 20.9656 31.857H24.9656ZM24.98 31.7634C24.9997 31.7299 25.0145 31.7151 25.048 31.6954L23.0252 28.2446C22.4014 28.6103 21.8949 29.1168 21.5292 29.7406L24.98 31.7634ZM25.048 31.6954C25.0544 31.6917 25.0586 31.6899 25.0654 31.6882C25.073 31.6862 25.0962 31.681 25.1416 31.681V27.681C24.4042 27.681 23.6824 27.8594 23.0252 28.2446L25.048 31.6954ZM25.1416 31.681C25.187 31.681 25.2102 31.6862 25.2178 31.6882C25.2246 31.6899 25.2288 31.6917 25.2352 31.6954L27.258 28.2446C26.6008 27.8593 25.879 27.681 25.1416 27.681V31.681ZM25.2352 31.6954C25.2687 31.7151 25.2835 31.7299 25.3032 31.7634L28.754 29.7406C28.3883 29.1168 27.8818 28.6103 27.258 28.2446L25.2352 31.6954ZM25.3032 31.7634C25.3069 31.7698 25.3087 31.774 25.3104 31.7808C25.3124 31.7884 25.3176 31.8116 25.3176 31.857H29.3176C29.3176 31.1196 29.1392 30.3978 28.754 29.7406L25.3032 31.7634ZM25.3176 31.857V35.886H29.3176V31.857H25.3176ZM25.3176 35.886C25.3176 35.9314 25.3124 35.9546 25.3104 35.9622C25.3087 35.969 25.3069 35.9732 25.3032 35.9796L28.754 38.0024C29.1392 37.3452 29.3176 36.6234 29.3176 35.886H25.3176ZM25.3032 35.9796C25.2835 36.0131 25.2687 36.0279 25.2352 36.0476L27.258 39.4984C27.8818 39.1327 28.3883 38.6262 28.754 38.0024L25.3032 35.9796ZM25.2352 36.0476C25.2288 36.0513 25.2246 36.0531 25.2178 36.0548C25.2102 36.0568 25.187 36.062 25.1416 36.062V40.062C25.879 40.062 26.6008 39.8836 27.258 39.4984L25.2352 36.0476ZM31.7177 39.983H29.7177V41.983H31.7177V39.983ZM40.2857 39.983V41.983H42.2857V39.983H40.2857ZM40.2857 37.807H42.2857V35.807H40.2857V37.807ZM35.3047 37.807L33.987 36.3024L29.9853 39.807H35.3047V37.807ZM38.0417 35.41L36.7271 33.9027L36.724 33.9054L38.0417 35.41ZM39.2742 34.271L40.6884 35.6852L40.6943 35.6793L40.7002 35.6733L39.2742 34.271ZM40.0307 33.166L41.869 33.9538L41.873 33.9444L40.0307 33.166ZM38.2457 28.032L37.2704 29.7781L37.2797 29.7833L37.2891 29.7884L38.2457 28.032ZM33.8087 28.0065L34.7154 29.7892L34.7154 29.7892L33.8087 28.0065ZM32.2702 29.426L33.9838 30.4573L32.2702 29.426ZM31.7177 31.602H29.7177V33.602H31.7177V31.602ZM34.0977 31.602V33.602H36.1655L36.0966 31.5354L34.0977 31.602ZM34.3272 30.6585L36.0658 31.6471L36.0699 31.6399L36.0739 31.6326L34.3272 30.6585ZM35.0157 29.953L36.0398 31.6709L36.0494 31.6651L35.0157 29.953ZM37.3957 30.2335L35.9148 31.5777L35.9256 31.5896L35.9366 31.6014L37.3957 30.2335ZM37.6677 32.4605L35.8993 31.5263V31.5263L37.6677 32.4605ZM36.8517 33.421L35.5284 31.9213L35.5242 31.9251L36.8517 33.421ZM31.7177 37.977L30.3902 36.4811L29.7177 37.0779V37.977H31.7177ZM31.7177 41.983H40.2857V37.983H31.7177V41.983ZM42.2857 39.983V37.807H38.2857V39.983H42.2857ZM40.2857 35.807H35.3047V39.807H40.2857V35.807ZM36.6223 39.3116L39.3593 36.9146L36.724 33.9054L33.987 36.3024L36.6223 39.3116ZM39.3562 36.9173C39.8663 36.4724 40.3127 36.0609 40.6884 35.6852L37.86 32.8568C37.567 33.1497 37.1917 33.4976 36.7271 33.9027L39.3562 36.9173ZM40.7002 35.6733C41.1907 35.1745 41.5912 34.602 41.869 33.9538L38.1924 32.3782C38.1302 32.5233 38.0263 32.6875 37.8481 32.8687L40.7002 35.6733ZM41.873 33.9444C42.1791 33.22 42.2857 32.4299 42.2857 31.653H38.2857C38.2857 32.0888 38.2223 32.3073 38.1884 32.3876L41.873 33.9444ZM42.2857 31.653C42.2857 30.5281 42.0343 29.449 41.4704 28.4797L38.013 30.4913C38.1743 30.7686 38.2857 31.1346 38.2857 31.653H42.2857ZM41.4704 28.4797C40.9234 27.5396 40.1574 26.7958 39.2023 26.2756L37.2891 29.7884C37.6033 29.9595 37.8346 30.1847 38.013 30.4913L41.4704 28.4797ZM39.221 26.2859C38.2623 25.7505 37.2061 25.505 36.1037 25.505V29.505C36.5993 29.505 36.971 29.6109 37.2704 29.7781L39.221 26.2859ZM36.1037 25.505C34.9734 25.505 33.8873 25.7227 32.902 26.2238L34.7154 29.7892C35.0447 29.6217 35.4886 29.505 36.1037 29.505V25.505ZM32.902 26.2238C31.922 26.7223 31.1247 27.4508 30.5566 28.3947L33.9838 30.4573C34.1523 30.1772 34.3807 29.9594 34.7154 29.7892L32.902 26.2238ZM30.5566 28.3947C29.9704 29.3687 29.7177 30.4639 29.7177 31.602H33.7177C33.7177 31.0627 33.8333 30.7073 33.9838 30.4573L30.5566 28.3947ZM31.7177 33.602H34.0977V29.602H31.7177V33.602ZM36.0966 31.5354C36.0966 31.5376 36.0967 31.5559 36.0899 31.5838C36.083 31.6121 36.073 31.6344 36.0658 31.6471L32.5886 29.6699C32.2373 30.2876 32.0755 30.9686 32.0988 31.6686L36.0966 31.5354ZM36.0739 31.6326C36.0735 31.6333 36.0716 31.6366 36.0678 31.6418C36.0639 31.6469 36.0592 31.6525 36.0539 31.658C36.0422 31.67 36.035 31.6738 36.0398 31.6709L33.9915 28.2351C33.4001 28.5877 32.9191 29.0772 32.5804 29.6844L36.0739 31.6326ZM36.0494 31.6651C36.042 31.6696 36.0338 31.6738 36.0255 31.6773C36.0173 31.6807 36.011 31.6827 36.0076 31.6836C36.0043 31.6844 36.0055 31.6839 36.0122 31.683C36.0191 31.6822 36.0323 31.681 36.0527 31.681V27.681C35.3402 27.681 34.629 27.8502 33.9819 28.2409L36.0494 31.6651ZM36.0527 31.681C36.1132 31.681 36.1011 31.6904 36.0483 31.6687C36.023 31.6583 35.9958 31.6437 35.9696 31.6252C35.9436 31.6069 35.9254 31.5895 35.9148 31.5777L38.8766 28.8893C38.1126 28.0476 37.0978 27.681 36.0527 27.681V31.681ZM35.9366 31.6014C35.933 31.5976 35.9258 31.589 35.9179 31.5762C35.9099 31.5633 35.9045 31.5514 35.9013 31.5428C35.8982 31.5344 35.8991 31.5341 35.9009 31.5448C35.9027 31.5558 35.9057 31.5797 35.9057 31.619H39.9057C39.9057 30.6204 39.5877 29.6474 38.8547 28.8656L35.9366 31.6014ZM35.9057 31.619C35.9057 31.545 35.9171 31.4968 35.9217 31.4806C35.9259 31.4657 35.9235 31.4804 35.8993 31.5263L39.4361 33.3947C39.7022 32.8909 39.9057 32.289 39.9057 31.619H35.9057ZM35.8993 31.5263C35.9017 31.5216 35.8834 31.5569 35.8205 31.631C35.7583 31.7041 35.6645 31.8013 35.5284 31.9213L38.1749 34.9207C38.658 34.4944 39.122 33.9892 39.4361 33.3947L35.8993 31.5263ZM35.5242 31.9251L30.3902 36.4811L33.0452 39.4729L38.1792 34.9169L35.5242 31.9251ZM29.7177 37.977V39.983H33.7177V37.977H29.7177ZM44.4424 40H42.4424V42H44.4424V40ZM46.8054 40V42H48.8054V40H46.8054ZM46.8054 27.76H48.8054V25.76H46.8054V27.76ZM44.4424 27.76V25.76H43.8885L43.4135 26.045L44.4424 27.76ZM42.1474 29.137L41.1185 27.422L40.1474 28.0046V29.137H42.1474ZM42.1474 31.687H40.1474V35.2644L43.1949 33.3907L42.1474 31.687ZM44.4424 30.276H46.4424V26.6986L43.395 28.5722L44.4424 30.276ZM44.4424 42H46.8054V38H44.4424V42ZM48.8054 40V27.76H44.8054V40H48.8054ZM46.8054 25.76H44.4424V29.76H46.8054V25.76ZM43.4135 26.045L41.1185 27.422L43.1764 30.852L45.4714 29.475L43.4135 26.045ZM40.1474 29.137V31.687H44.1474V29.137H40.1474ZM43.1949 33.3907L45.4899 31.9797L43.395 28.5722L41.1 29.9832L43.1949 33.3907ZM42.4424 30.276V40H46.4424V30.276H42.4424Z" fill="#F5F5F1"/>
</svg>
