<svg width="45" height="45" viewBox="0 0 45 45" fill="none" xmlns="http://www.w3.org/2000/svg">
<path d="M29.619 13.728H31.2621V15.3712H29.619V13.728Z" fill="#C71F24" stroke="#C71F24" stroke-width="1.00392"/>
<path d="M25.9688 33.0791V33.5811H26.4708H31.2629V35.2242H24.3257V22.9927H31.2629V24.636H26.4708H25.9688V25.1379V27.785V28.287H26.4708H31.2629V29.9301H26.4708H25.9688V30.4321V33.0791Z" fill="#C71F24" stroke="#C71F24" stroke-width="1.00392"/>
<path d="M24.3257 17.6987H25.9688V19.3418H24.3257V17.6987Z" fill="#C71F24" stroke="#C71F24" stroke-width="1.00392"/>
<path d="M28.0478 0.0101318C24.4476 4.03234 21.4861 7.74563 18.9259 11.3321C16.7677 7.43169 13.4439 3.34384 10.4583 0.0101318C7.13109 3.7251 0 12.2177 0 17.2163C0 23.2048 5.05782 28.0248 11.1051 27.654C11.0994 27.7844 11.0956 27.9134 11.0956 28.0396C11.0956 37.387 18.7002 44.9918 28.0478 44.9918C37.3954 44.9918 45 37.3871 45 28.0397C45 20.0781 33.3911 5.97784 28.0478 0.0101318ZM10.4583 25.0276C6.15115 25.0276 2.64706 21.5235 2.64706 17.2163C2.64706 13.7176 8.20897 6.68787 10.4584 4.01795C12.7087 6.6884 18.2694 13.7187 18.2694 17.2163C18.2695 21.5235 14.7654 25.0276 10.4583 25.0276ZM28.0478 42.3448C20.1599 42.3448 13.7426 35.9275 13.7426 28.0397C13.7426 27.7546 13.7644 27.4485 13.8064 27.1251C17.9361 25.7259 20.9165 21.8127 20.9165 17.2164C20.9165 16.3226 20.6869 15.2754 20.2304 14.0802C23.2226 9.74954 26.468 5.84778 28.052 4.00137C32.8103 9.51298 42.3529 21.8462 42.3529 28.0397C42.3529 35.9275 35.9358 42.3448 28.0478 42.3448Z" fill="#38434E"/>
</svg>
